<svg xmlns="http://www.w3.org/2000/svg" viewBox="0 0 120 120" width="120" height="120"><defs><linearGradient id="a1" x1="0.00" y1="0.00" x2="1.00" y2="0.00"><stop offset="0.00" stop-color="#44803a"/><stop offset="0.45" stop-color="#86b85a"/><stop offset="1.00" stop-color="#44803a"/></linearGradient><linearGradient id="a2" x1="0.00" y1="0.00" x2="1.00" y2="0.00"><stop offset="0.00" stop-color="#22481c"/><stop offset="0.50" stop-color="#44803a"/><stop offset="1.00" stop-color="#22481c"/></linearGradient><linearGradient id="a3" x1="0.00" y1="0.00" x2="1.00" y2="0.00"><stop offset="0.00" stop-color="#5f9a3c"/><stop offset="0.45" stop-color="#a4d06a"/><stop offset="1.00" stop-color="#5f9a3c"/></linearGradient><linearGradient id="a4" x1="0.00" y1="0.00" x2="1.00" y2="0.00"><stop offset="0.00" stop-color="#335f24"/><stop offset="0.50" stop-color="#5f9a3c"/><stop offset="1.00" stop-color="#335f24"/></linearGradient><radialGradient id="a5" cx="0.50" cy="0.50" r="0.50"><stop offset="0.00" stop-color="#000" stop-opacity="0.55"/><stop offset="0.50" stop-color="#000" stop-opacity="0.28"/><stop offset="1.00" stop-color="#000" stop-opacity="0.00"/></radialGradient><radialGradient id="a6" cx="0.34" cy="0.30" r="0.82"><stop offset="0.00" stop-color="#fff6a0"/><stop offset="0.40" stop-color="#f0d040"/><stop offset="0.80" stop-color="#c09a14"/><stop offset="1.00" stop-color="#5e4806"/></radialGradient><clipPath id="a7"><path d="M18 78A12 12.5 0 1 0 42 78A12 12.5 0 1 0 18 78Z"/></clipPath><linearGradient id="a8" x1="0.15" y1="0.05" x2="0.85" y2="1.00"><stop offset="0.00" stop-color="#fff0d0" stop-opacity="0.00"/><stop offset="0.55" stop-color="#fff0d0" stop-opacity="0.00"/><stop offset="1.00" stop-color="#fff0d0" stop-opacity="0.35"/></linearGradient><clipPath id="a9"><path d="M18 78A12 12.5 0 1 0 42 78A12 12.5 0 1 0 18 78Z"/></clipPath><radialGradient id="a10" cx="0.50" cy="0.50" r="0.50"><stop offset="0.00" stop-color="#fff" stop-opacity="0.70"/><stop offset="0.45" stop-color="#fff" stop-opacity="0.28"/><stop offset="1.00" stop-color="#fff" stop-opacity="0.00"/></radialGradient><radialGradient id="a11" cx="0.34" cy="0.30" r="0.82"><stop offset="0.00" stop-color="#ff9a7a"/><stop offset="0.40" stop-color="#d8322a"/><stop offset="0.80" stop-color="#8a1010"/><stop offset="1.00" stop-color="#3e0404"/></radialGradient><clipPath id="a12"><path d="M46 80A12 12.5 0 1 0 70 80A12 12.5 0 1 0 46 80Z"/></clipPath><clipPath id="a13"><path d="M46 80A12 12.5 0 1 0 70 80A12 12.5 0 1 0 46 80Z"/></clipPath><clipPath id="a14"><path d="M74 76A12 12.5 0 1 0 98 76A12 12.5 0 1 0 74 76Z"/></clipPath><clipPath id="a15"><path d="M74 76A12 12.5 0 1 0 98 76A12 12.5 0 1 0 74 76Z"/></clipPath><clipPath id="a16"><path d="M32 92A12 12.5 0 1 0 56 92A12 12.5 0 1 0 32 92Z"/></clipPath><clipPath id="a17"><path d="M32 92A12 12.5 0 1 0 56 92A12 12.5 0 1 0 32 92Z"/></clipPath><clipPath id="a18"><path d="M60 94A12 12.5 0 1 0 84 94A12 12.5 0 1 0 60 94Z"/></clipPath><clipPath id="a19"><path d="M60 94A12 12.5 0 1 0 84 94A12 12.5 0 1 0 60 94Z"/></clipPath></defs><path d="M8 36C30 32 60 30 108 22" fill="none" stroke="#4e3a1a" stroke-width="2.6" stroke-linecap="round"/><path d="M8 36C30 32 60 30 108 22" fill="none" stroke="#8a7040" stroke-width="0.8" stroke-linecap="round" stroke-opacity="0.7" transform="translate(-.5 -.3)"/><g transform="translate(40 33) rotate(-150)"><path d="M-2 0L0 0" stroke="#6b5a2c" stroke-width="1.4" stroke-linecap="round" fill="none"/><path d="M0 0C6.2 -10 19.6 -9.5 28 0Q14 -1.4 0 0Z" fill="url(#a1)"/><path d="M0 0Q14 -1.4 28 0C19.6 9 6.2 10 0 0Z" fill="url(#a2)"/><path d="M0 0Q14 -1.4 26.9 0" fill="none" stroke="#cfe8a8" stroke-width="0.8" stroke-opacity="0.7" stroke-linecap="round"/><path d="M5 -0.4Q7 -3.8 9.2 -6" fill="none" stroke="#cfe8a8" stroke-width="0.4" stroke-opacity="0.5"/><path d="M5 -0.4Q7 3.5 9.2 6" fill="none" stroke="#cfe8a8" stroke-width="0.4" stroke-opacity="0.5"/><path d="M10.1 -0.6Q12 -4.4 14.3 -6.9" fill="none" stroke="#cfe8a8" stroke-width="0.4" stroke-opacity="0.5"/><path d="M10.1 -0.6Q12 3.9 14.3 6.9" fill="none" stroke="#cfe8a8" stroke-width="0.4" stroke-opacity="0.5"/><path d="M15.1 -0.7Q17.1 -3.8 19.3 -5.8" fill="none" stroke="#cfe8a8" stroke-width="0.4" stroke-opacity="0.5"/><path d="M15.1 -0.7Q17.1 3.2 19.3 5.8" fill="none" stroke="#cfe8a8" stroke-width="0.4" stroke-opacity="0.5"/><path d="M20.2 -0.6Q22.1 -2.1 24.4 -3.1" fill="none" stroke="#cfe8a8" stroke-width="0.4" stroke-opacity="0.5"/><path d="M20.2 -0.6Q22.1 1.7 24.4 3.1" fill="none" stroke="#cfe8a8" stroke-width="0.4" stroke-opacity="0.5"/></g><g transform="translate(76 28) rotate(-30)"><path d="M-2 0L0 0" stroke="#6b5a2c" stroke-width="1.4" stroke-linecap="round" fill="none"/><path d="M0 0C6.6 -10 21 -9.5 30 0Q15 -1.4 0 0Z" fill="url(#a3)"/><path d="M0 0Q15 -1.4 30 0C21 9 6.6 10 0 0Z" fill="url(#a4)"/><path d="M0 0Q15 -1.4 28.8 0" fill="none" stroke="#e2f3bf" stroke-width="0.8" stroke-opacity="0.7" stroke-linecap="round"/><path d="M5.4 -0.4Q7.5 -3.8 9.9 -6" fill="none" stroke="#e2f3bf" stroke-width="0.4" stroke-opacity="0.5"/><path d="M5.4 -0.4Q7.5 3.5 9.9 6" fill="none" stroke="#e2f3bf" stroke-width="0.4" stroke-opacity="0.5"/><path d="M10.8 -0.6Q12.9 -4.4 15.3 -6.9" fill="none" stroke="#e2f3bf" stroke-width="0.4" stroke-opacity="0.5"/><path d="M10.8 -0.6Q12.9 3.9 15.3 6.9" fill="none" stroke="#e2f3bf" stroke-width="0.4" stroke-opacity="0.5"/><path d="M16.2 -0.7Q18.3 -3.8 20.7 -5.8" fill="none" stroke="#e2f3bf" stroke-width="0.4" stroke-opacity="0.5"/><path d="M16.2 -0.7Q18.3 3.2 20.7 5.8" fill="none" stroke="#e2f3bf" stroke-width="0.4" stroke-opacity="0.5"/><path d="M21.6 -0.6Q23.7 -2.1 26.1 -3.1" fill="none" stroke="#e2f3bf" stroke-width="0.4" stroke-opacity="0.5"/><path d="M21.6 -0.6Q23.7 1.7 26.1 3.1" fill="none" stroke="#e2f3bf" stroke-width="0.4" stroke-opacity="0.5"/></g><path d="M26 35C27 46 28 56 30 64" fill="none" stroke="#5a6a24" stroke-width="1.3" stroke-linecap="round"/><path d="M26 35C27 46 28 56 30 64" fill="none" stroke="#a8b86a" stroke-width="0.4" stroke-linecap="round" stroke-opacity="0.7" transform="translate(-.5 -.3)"/><path d="M56 31C56 44 56 54 58 64" fill="none" stroke="#5a6a24" stroke-width="1.3" stroke-linecap="round"/><path d="M56 31C56 44 56 54 58 64" fill="none" stroke="#a8b86a" stroke-width="0.4" stroke-linecap="round" stroke-opacity="0.7" transform="translate(-.5 -.3)"/><path d="M90 25C90 40 88 52 86 62" fill="none" stroke="#5a6a24" stroke-width="1.3" stroke-linecap="round"/><path d="M90 25C90 40 88 52 86 62" fill="none" stroke="#a8b86a" stroke-width="0.4" stroke-linecap="round" stroke-opacity="0.7" transform="translate(-.5 -.3)"/><ellipse cx="30" cy="91" rx="12" ry="2.2" fill="url(#a5)"/><ellipse cx="58" cy="93" rx="12" ry="2.2" fill="url(#a5)"/><ellipse cx="86" cy="89" rx="12" ry="2.2" fill="url(#a5)"/><ellipse cx="44" cy="105" rx="12" ry="2.2" fill="url(#a5)"/><ellipse cx="72" cy="107" rx="12" ry="2.2" fill="url(#a5)"/><path d="M18 78A12 12.5 0 1 0 42 78A12 12.5 0 1 0 18 78Z" fill="url(#a6)"/><path d="M18 78A12 12.5 0 1 0 42 78A12 12.5 0 1 0 18 78Z" fill="none" stroke="url(#a8)" stroke-width="2" clip-path="url(#a7)"/><path d="M31 66C35 74 35 82 31 90" fill="none" stroke="#5e4806" stroke-opacity="0.3" stroke-width="1" clip-path="url(#a9)"/><ellipse cx="25.5" cy="73.5" rx="3.6" ry="2.2" fill="url(#a10)" transform="rotate(-35 25.5 73.5)"/><path d="M46 80A12 12.5 0 1 0 70 80A12 12.5 0 1 0 46 80Z" fill="url(#a11)"/><path d="M46 80A12 12.5 0 1 0 70 80A12 12.5 0 1 0 46 80Z" fill="none" stroke="url(#a8)" stroke-width="2" clip-path="url(#a12)"/><path d="M59 68C63 76 63 84 59 92" fill="none" stroke="#3e0404" stroke-opacity="0.3" stroke-width="1" clip-path="url(#a13)"/><ellipse cx="53.5" cy="75.5" rx="3.6" ry="2.2" fill="url(#a10)" transform="rotate(-35 53.5 75.5)"/><path d="M74 76A12 12.5 0 1 0 98 76A12 12.5 0 1 0 74 76Z" fill="url(#a6)"/><path d="M74 76A12 12.5 0 1 0 98 76A12 12.5 0 1 0 74 76Z" fill="none" stroke="url(#a8)" stroke-width="2" clip-path="url(#a14)"/><path d="M87 64C91 72 91 80 87 88" fill="none" stroke="#5e4806" stroke-opacity="0.3" stroke-width="1" clip-path="url(#a15)"/><ellipse cx="81.5" cy="71.5" rx="3.6" ry="2.2" fill="url(#a10)" transform="rotate(-35 81.5 71.5)"/><path d="M32 92A12 12.5 0 1 0 56 92A12 12.5 0 1 0 32 92Z" fill="url(#a11)"/><path d="M32 92A12 12.5 0 1 0 56 92A12 12.5 0 1 0 32 92Z" fill="none" stroke="url(#a8)" stroke-width="2" clip-path="url(#a16)"/><path d="M45 80C49 88 49 96 45 104" fill="none" stroke="#3e0404" stroke-opacity="0.3" stroke-width="1" clip-path="url(#a17)"/><ellipse cx="39.5" cy="87.5" rx="3.6" ry="2.2" fill="url(#a10)" transform="rotate(-35 39.5 87.5)"/><path d="M60 94A12 12.5 0 1 0 84 94A12 12.5 0 1 0 60 94Z" fill="url(#a6)"/><path d="M60 94A12 12.5 0 1 0 84 94A12 12.5 0 1 0 60 94Z" fill="none" stroke="url(#a8)" stroke-width="2" clip-path="url(#a18)"/><path d="M73 82C77 90 77 98 73 106" fill="none" stroke="#5e4806" stroke-opacity="0.3" stroke-width="1" clip-path="url(#a19)"/><ellipse cx="67.5" cy="89.5" rx="3.6" ry="2.2" fill="url(#a10)" transform="rotate(-35 67.5 89.5)"/></svg>
