<svg xmlns="http://www.w3.org/2000/svg" viewBox="0 0 120 120" width="120" height="120"><defs><linearGradient id="a1"><stop stop-color="#44803a"/><stop offset=".45" stop-color="#86b85a"/><stop offset="1" stop-color="#44803a"/></linearGradient><linearGradient id="a2"><stop stop-color="#22481c"/><stop offset=".5" stop-color="#44803a"/><stop offset="1" stop-color="#22481c"/></linearGradient><linearGradient id="a3"><stop stop-color="#5f9a3c"/><stop offset=".45" stop-color="#a4d06a"/><stop offset="1" stop-color="#5f9a3c"/></linearGradient><linearGradient id="a4"><stop stop-color="#335f24"/><stop offset=".5" stop-color="#5f9a3c"/><stop offset="1" stop-color="#335f24"/></linearGradient><radialGradient id="a5"><stop stop-color="#000" stop-opacity=".55"/><stop offset=".5" stop-color="#000" stop-opacity=".28"/><stop offset="1" stop-color="#000" stop-opacity="0"/></radialGradient><radialGradient id="a6" cx=".35" cy=".3" r=".8"><stop stop-color="#8a7aa8"/><stop offset=".35" stop-color="#3a1e4a"/><stop offset="1" stop-color="#0e0414"/></radialGradient><radialGradient id="a7" cx=".35" cy=".3" r=".8"><stop stop-color="#4a3a5a"/><stop offset=".5" stop-color="#1e0e28"/><stop offset="1" stop-color="#06020a"/></radialGradient></defs><g fill="none" stroke-linecap="round"><path d="M100 30C88 40 76 52 66 66" stroke="#5a4a24" stroke-width="1.8"/><path d="M100 30C88 40 76 52 66 66" stroke="#a8986a" stroke-width=".5" stroke-opacity=".7" transform="translate(-.5 -.3)"/></g><g transform="translate(88 42) rotate(-40)"><path d="M0 0C6.6-13 21-12.3 30 0Q15-1.8 0 0Z" fill="url(#a1)"/><path d="M0 0Q15-1.8 30 0C21 11.7 6.6 13 0 0Z" fill="url(#a2)"/><path d="M0 0Q15-1.8 28.8 0" fill="none" stroke="#cfe8a8" stroke-width="1" stroke-opacity=".7" stroke-linecap="round"/><g fill="none" stroke="#cfe8a8" stroke-width=".6" stroke-opacity=".5"><path d="M4.5-.5Q6.6-4.7 9-7.5"/><path d="M4.5-.5Q6.6 4.3 9 7.5"/><path d="M9-.8Q11.1-5.6 13.5-8.8"/><path d="M9-.8Q11.1 5 13.5 8.8"/><path d="M13.5-.9Q15.6-5.5 18-8.6"/><path d="M13.5-.9Q15.6 4.8 18 8.6"/><path d="M18-.9Q20.1-4.3 22.5-6.6"/><path d="M18-.9Q20.1 3.6 22.5 6.6"/><path d="M22.5-.7Q24.6-2.2 27-3.3"/><path d="M22.5-.7Q24.6 1.7 27 3.3"/></g></g><g transform="translate(76 54) rotate(-150)"><path d="M0 0C5.7-11 18.2-10.4 26 0Q13-1.5 0 0Z" fill="url(#a3)"/><path d="M0 0Q13-1.5 26 0C18.2 9.9 5.7 11 0 0Z" fill="url(#a4)"/><path d="M0 0Q13-1.5 25 0" fill="none" stroke="#e2f3bf" stroke-width=".9" stroke-opacity=".7" stroke-linecap="round"/><g fill="none" stroke="#e2f3bf" stroke-width=".5" stroke-opacity=".5"><path d="M4.7-.5Q6.5-4.2 8.6-6.6"/><path d="M4.7-.5Q6.5 3.8 8.6 6.6"/><path d="M9.4-.7Q11.2-4.8 13.3-7.5"/><path d="M9.4-.7Q11.2 4.2 13.3 7.5"/><path d="M14-.8Q15.9-4.2 17.9-6.4"/><path d="M14-.8Q15.9 3.5 17.9 6.4"/><path d="M18.7-.6Q20.5-2.3 22.6-3.4"/><path d="M18.7-.6Q20.5 1.8 22.6 3.4"/></g></g><g fill="url(#a5)"><ellipse cx="44" cy="102" rx="20" ry="3.4"/><ellipse cx="80" cy="102" rx="16" ry="3"/></g><g><g transform="translate(81 86) rotate(18) scale(.95)"><path d="M0-16C9-16 15-10 15-1C15 9 8 17 0 18C-8 17-15 9-15-1C-15-10-9-16 0-16Z" fill="#0e0610"/><circle cx="-10.8" cy="-13" r="2.2" fill="url(#a7)"/><circle cx="-11.6" cy="-14" r=".5" fill="#fff" fill-opacity=".2"/><circle cx="-6.2" cy="-13" r="2.8" fill="url(#a7)"/><circle cx="-7" cy="-14" r=".6" fill="#fff" fill-opacity=".6"/><circle cx="-1.6" cy="-13" r="3.1" fill="url(#a7)"/><circle cx="-2.4" cy="-14" r=".7" fill="#fff" fill-opacity=".6"/><circle cx="3" cy="-13" r="3" fill="url(#a7)"/><circle cx="2.2" cy="-14" r=".7" fill="#fff" fill-opacity=".6"/><circle cx="7.6" cy="-13" r="2.6" fill="url(#a7)"/><circle cx="6.8" cy="-14" r=".6" fill="#fff" fill-opacity=".6"/><circle cx="-10.9" cy="-8.4" r="2.5" fill="url(#a7)"/><circle cx="-11.7" cy="-9.4" r=".6" fill="#fff" fill-opacity=".2"/><circle cx="-6.3" cy="-8.4" r="2.9" fill="url(#a6)"/><circle cx="-7.1" cy="-9.4" r=".7" fill="#fff" fill-opacity=".6"/><circle cx="-1.7" cy="-8.4" r="3.1" fill="url(#a6)"/><circle cx="-2.5" cy="-9.4" r=".7" fill="#fff" fill-opacity=".6"/><circle cx="2.9" cy="-8.4" r="3.1" fill="url(#a6)"/><circle cx="2.1" cy="-9.4" r=".7" fill="#fff" fill-opacity=".6"/><circle cx="7.5" cy="-8.4" r="2.8" fill="url(#a6)"/><circle cx="6.7" cy="-9.4" r=".6" fill="#fff" fill-opacity=".6"/><circle cx="12.1" cy="-8.4" r="2.3" fill="url(#a7)"/><circle cx="11.3" cy="-9.4" r=".5" fill="#fff" fill-opacity=".2"/><circle cx="-14.3" cy="-3.8" r="2.2" fill="url(#a7)"/><circle cx="-15.1" cy="-4.8" r=".5" fill="#fff" fill-opacity=".2"/><circle cx="-9.7" cy="-3.8" r="2.7" fill="url(#a6)"/><circle cx="-10.5" cy="-4.8" r=".6" fill="#fff" fill-opacity=".6"/><circle cx="-5.1" cy="-3.8" r="3" fill="url(#a6)"/><circle cx="-5.9" cy="-4.8" r=".7" fill="#fff" fill-opacity=".6"/><circle cx="-.5" cy="-3.8" r="3.1" fill="url(#a6)"/><circle cx="-1.3" cy="-4.8" r=".7" fill="#fff" fill-opacity=".6"/><circle cx="4.1" cy="-3.8" r="3" fill="url(#a6)"/><circle cx="3.3" cy="-4.8" r=".7" fill="#fff" fill-opacity=".6"/><circle cx="8.7" cy="-3.8" r="2.8" fill="url(#a6)"/><circle cx="7.9" cy="-4.8" r=".6" fill="#fff" fill-opacity=".6"/><circle cx="13.3" cy="-3.8" r="2.3" fill="url(#a7)"/><circle cx="12.5" cy="-4.8" r=".5" fill="#fff" fill-opacity=".2"/><circle cx="-12.1" cy=".8" r="2.4" fill="url(#a7)"/><circle cx="-12.9" cy="-.2" r=".6" fill="#fff" fill-opacity=".2"/><circle cx="-7.5" cy=".8" r="2.8" fill="url(#a6)"/><circle cx="-8.3" cy="-.2" r=".6" fill="#fff" fill-opacity=".6"/><circle cx="-2.9" cy=".8" r="3.1" fill="url(#a6)"/><circle cx="-3.7" cy="-.2" r=".7" fill="#fff" fill-opacity=".6"/><circle cx="1.7" cy=".8" r="3.1" fill="url(#a6)"/><circle cx=".9" cy="-.2" r=".7" fill="#fff" fill-opacity=".6"/><circle cx="6.3" cy=".8" r="2.9" fill="url(#a6)"/><circle cx="5.5" cy="-.2" r=".7" fill="#fff" fill-opacity=".6"/><circle cx="10.9" cy=".8" r="2.6" fill="url(#a7)"/><circle cx="10.1" cy="-.2" r=".6" fill="#fff" fill-opacity=".2"/><circle cx="-12.9" cy="5.4" r="2.2" fill="url(#a7)"/><circle cx="-13.7" cy="4.4" r=".5" fill="#fff" fill-opacity=".2"/><circle cx="-8.3" cy="5.4" r="2.7" fill="url(#a6)"/><circle cx="-9.1" cy="4.4" r=".6" fill="#fff" fill-opacity=".6"/><circle cx="-3.7" cy="5.4" r="3" fill="url(#a6)"/><circle cx="-4.5" cy="4.4" r=".7" fill="#fff" fill-opacity=".6"/><circle cx=".9" cy="5.4" r="3.1" fill="url(#a6)"/><circle cx=".1" cy="4.4" r=".7" fill="#fff" fill-opacity=".6"/><circle cx="5.5" cy="5.4" r="2.9" fill="url(#a6)"/><circle cx="4.7" cy="4.4" r=".7" fill="#fff" fill-opacity=".6"/><circle cx="10.1" cy="5.4" r="2.5" fill="url(#a7)"/><circle cx="9.3" cy="4.4" r=".6" fill="#fff" fill-opacity=".2"/><circle cx="-6.9" cy="10" r="2.6" fill="url(#a7)"/><circle cx="-7.7" cy="9" r=".6" fill="#fff" fill-opacity=".2"/><circle cx="-2.3" cy="10" r="3" fill="url(#a6)"/><circle cx="-3.1" cy="9" r=".7" fill="#fff" fill-opacity=".6"/><circle cx="2.3" cy="10" r="3" fill="url(#a6)"/><circle cx="1.5" cy="9" r=".7" fill="#fff" fill-opacity=".6"/><circle cx="6.9" cy="10" r="2.6" fill="url(#a7)"/><circle cx="6.1" cy="9" r=".6" fill="#fff" fill-opacity=".2"/><circle cx="-4.7" cy="14.6" r="2.2" fill="url(#a7)"/><circle cx="-5.5" cy="13.6" r=".5" fill="#fff" fill-opacity=".2"/><circle cx="-.1" cy="14.6" r="3.1" fill="url(#a6)"/><circle cx="-.9" cy="13.6" r=".7" fill="#fff" fill-opacity=".6"/><circle cx="4.5" cy="14.6" r="2.2" fill="url(#a7)"/><circle cx="3.7" cy="13.6" r=".5" fill="#fff" fill-opacity=".2"/><path d="M-6-16L0-19L6-16" fill="none" stroke="#6a7a3a" stroke-width="1.6" stroke-linecap="round"/></g><g transform="translate(46 80) rotate(-10) scale(1.3)"><path d="M0-16C9-16 15-10 15-1C15 9 8 17 0 18C-8 17-15 9-15-1C-15-10-9-16 0-16Z" fill="#0e0610"/><circle cx="-10.8" cy="-13" r="2.2" fill="url(#a7)"/><circle cx="-11.6" cy="-14" r=".5" fill="#fff" fill-opacity=".2"/><circle cx="-6.2" cy="-13" r="2.8" fill="url(#a7)"/><circle cx="-7" cy="-14" r=".6" fill="#fff" fill-opacity=".6"/><circle cx="-1.6" cy="-13" r="3.1" fill="url(#a7)"/><circle cx="-2.4" cy="-14" r=".7" fill="#fff" fill-opacity=".6"/><circle cx="3" cy="-13" r="3" fill="url(#a7)"/><circle cx="2.2" cy="-14" r=".7" fill="#fff" fill-opacity=".6"/><circle cx="7.6" cy="-13" r="2.6" fill="url(#a7)"/><circle cx="6.8" cy="-14" r=".6" fill="#fff" fill-opacity=".6"/><circle cx="-10.9" cy="-8.4" r="2.5" fill="url(#a7)"/><circle cx="-11.7" cy="-9.4" r=".6" fill="#fff" fill-opacity=".2"/><circle cx="-6.3" cy="-8.4" r="2.9" fill="url(#a6)"/><circle cx="-7.1" cy="-9.4" r=".7" fill="#fff" fill-opacity=".6"/><circle cx="-1.7" cy="-8.4" r="3.1" fill="url(#a6)"/><circle cx="-2.5" cy="-9.4" r=".7" fill="#fff" fill-opacity=".6"/><circle cx="2.9" cy="-8.4" r="3.1" fill="url(#a6)"/><circle cx="2.1" cy="-9.4" r=".7" fill="#fff" fill-opacity=".6"/><circle cx="7.5" cy="-8.4" r="2.8" fill="url(#a6)"/><circle cx="6.7" cy="-9.4" r=".6" fill="#fff" fill-opacity=".6"/><circle cx="12.1" cy="-8.4" r="2.3" fill="url(#a7)"/><circle cx="11.3" cy="-9.4" r=".5" fill="#fff" fill-opacity=".2"/><circle cx="-14.3" cy="-3.8" r="2.2" fill="url(#a7)"/><circle cx="-15.1" cy="-4.8" r=".5" fill="#fff" fill-opacity=".2"/><circle cx="-9.7" cy="-3.8" r="2.7" fill="url(#a6)"/><circle cx="-10.5" cy="-4.8" r=".6" fill="#fff" fill-opacity=".6"/><circle cx="-5.1" cy="-3.8" r="3" fill="url(#a6)"/><circle cx="-5.9" cy="-4.8" r=".7" fill="#fff" fill-opacity=".6"/><circle cx="-.5" cy="-3.8" r="3.1" fill="url(#a6)"/><circle cx="-1.3" cy="-4.8" r=".7" fill="#fff" fill-opacity=".6"/><circle cx="4.1" cy="-3.8" r="3" fill="url(#a6)"/><circle cx="3.3" cy="-4.8" r=".7" fill="#fff" fill-opacity=".6"/><circle cx="8.7" cy="-3.8" r="2.8" fill="url(#a6)"/><circle cx="7.9" cy="-4.8" r=".6" fill="#fff" fill-opacity=".6"/><circle cx="13.3" cy="-3.8" r="2.3" fill="url(#a7)"/><circle cx="12.5" cy="-4.8" r=".5" fill="#fff" fill-opacity=".2"/><circle cx="-12.1" cy=".8" r="2.4" fill="url(#a7)"/><circle cx="-12.9" cy="-.2" r=".6" fill="#fff" fill-opacity=".2"/><circle cx="-7.5" cy=".8" r="2.8" fill="url(#a6)"/><circle cx="-8.3" cy="-.2" r=".6" fill="#fff" fill-opacity=".6"/><circle cx="-2.9" cy=".8" r="3.1" fill="url(#a6)"/><circle cx="-3.7" cy="-.2" r=".7" fill="#fff" fill-opacity=".6"/><circle cx="1.7" cy=".8" r="3.1" fill="url(#a6)"/><circle cx=".9" cy="-.2" r=".7" fill="#fff" fill-opacity=".6"/><circle cx="6.3" cy=".8" r="2.9" fill="url(#a6)"/><circle cx="5.5" cy="-.2" r=".7" fill="#fff" fill-opacity=".6"/><circle cx="10.9" cy=".8" r="2.6" fill="url(#a7)"/><circle cx="10.1" cy="-.2" r=".6" fill="#fff" fill-opacity=".2"/><circle cx="-12.9" cy="5.4" r="2.2" fill="url(#a7)"/><circle cx="-13.7" cy="4.4" r=".5" fill="#fff" fill-opacity=".2"/><circle cx="-8.3" cy="5.4" r="2.7" fill="url(#a6)"/><circle cx="-9.1" cy="4.4" r=".6" fill="#fff" fill-opacity=".6"/><circle cx="-3.7" cy="5.4" r="3" fill="url(#a6)"/><circle cx="-4.5" cy="4.4" r=".7" fill="#fff" fill-opacity=".6"/><circle cx=".9" cy="5.4" r="3.1" fill="url(#a6)"/><circle cx=".1" cy="4.4" r=".7" fill="#fff" fill-opacity=".6"/><circle cx="5.5" cy="5.4" r="2.9" fill="url(#a6)"/><circle cx="4.7" cy="4.4" r=".7" fill="#fff" fill-opacity=".6"/><circle cx="10.1" cy="5.4" r="2.5" fill="url(#a7)"/><circle cx="9.3" cy="4.4" r=".6" fill="#fff" fill-opacity=".2"/><circle cx="-6.9" cy="10" r="2.6" fill="url(#a7)"/><circle cx="-7.7" cy="9" r=".6" fill="#fff" fill-opacity=".2"/><circle cx="-2.3" cy="10" r="3" fill="url(#a6)"/><circle cx="-3.1" cy="9" r=".7" fill="#fff" fill-opacity=".6"/><circle cx="2.3" cy="10" r="3" fill="url(#a6)"/><circle cx="1.5" cy="9" r=".7" fill="#fff" fill-opacity=".6"/><circle cx="6.9" cy="10" r="2.6" fill="url(#a7)"/><circle cx="6.1" cy="9" r=".6" fill="#fff" fill-opacity=".2"/><circle cx="-4.7" cy="14.6" r="2.2" fill="url(#a7)"/><circle cx="-5.5" cy="13.6" r=".5" fill="#fff" fill-opacity=".2"/><circle cx="-.1" cy="14.6" r="3.1" fill="url(#a6)"/><circle cx="-.9" cy="13.6" r=".7" fill="#fff" fill-opacity=".6"/><circle cx="4.5" cy="14.6" r="2.2" fill="url(#a7)"/><circle cx="3.7" cy="13.6" r=".5" fill="#fff" fill-opacity=".2"/><path d="M-6-16L0-19L6-16" fill="none" stroke="#6a7a3a" stroke-width="1.6" stroke-linecap="round"/></g></g></svg>
