<svg xmlns="http://www.w3.org/2000/svg" viewBox="0 0 120 120" width="120" height="120"><defs><radialGradient id="a1"><stop stop-color="#000" stop-opacity=".55"/><stop offset=".5" stop-color="#000" stop-opacity=".28"/><stop offset="1" stop-color="#000" stop-opacity="0"/></radialGradient><linearGradient id="a2" x1="50" y1="104" x2="34" y2="30" gradientUnits="userSpaceOnUse"><stop stop-color="#f4fcd8"/><stop offset=".5" stop-color="#b8dc80"/><stop offset="1" stop-color="#6aa03a"/></linearGradient><linearGradient id="a3"><stop stop-color="#5f9a3c"/><stop offset=".45" stop-color="#a4d06a"/><stop offset="1" stop-color="#5f9a3c"/></linearGradient><linearGradient id="a4"><stop stop-color="#335f24"/><stop offset=".5" stop-color="#5f9a3c"/><stop offset="1" stop-color="#335f24"/></linearGradient><linearGradient id="a5" x1="56" y1="104" x2="50" y2="22" gradientUnits="userSpaceOnUse"><stop stop-color="#f4fcd8"/><stop offset=".5" stop-color="#b8dc80"/><stop offset="1" stop-color="#6aa03a"/></linearGradient><linearGradient id="a6" x1="62" y1="104" x2="66" y2="20" gradientUnits="userSpaceOnUse"><stop stop-color="#f4fcd8"/><stop offset=".5" stop-color="#b8dc80"/><stop offset="1" stop-color="#6aa03a"/></linearGradient><linearGradient id="a7" x1="68" y1="104" x2="84" y2="28" gradientUnits="userSpaceOnUse"><stop stop-color="#f4fcd8"/><stop offset=".5" stop-color="#b8dc80"/><stop offset="1" stop-color="#6aa03a"/></linearGradient><linearGradient id="a8" x1="58" y1="104" x2="58" y2="26" gradientUnits="userSpaceOnUse"><stop stop-color="#f4fcd8"/><stop offset=".5" stop-color="#b8dc80"/><stop offset="1" stop-color="#6aa03a"/></linearGradient></defs><ellipse cx="60" cy="104" rx="30" ry="4.5" fill="url(#a1)"/><g fill="none"><path d="M50 104C50 80 34 50 34 40" stroke="url(#a2)" stroke-width="9" stroke-linecap="round"/><path d="M48 104C48 80 32 50 32 42" stroke="#ffffff" stroke-width="1.2" stroke-opacity=".5"/></g><g transform="translate(34 40) rotate(-155.3)"><path d="M0 0C2.9-6 9.1-5.7 13 0Q6.5-.8 0 0Z" fill="url(#a3)"/><path d="M0 0Q6.5-.8 13 0C9.1 5.4 2.9 6 0 0Z" fill="url(#a4)"/><path d="M0 0Q6.5-.8 12.5 0" fill="none" stroke="#e2f3bf" stroke-width=".5" stroke-opacity=".7" stroke-linecap="round"/><g fill="none" stroke="#e2f3bf" stroke-width=".3" stroke-opacity=".5"><path d="M3.9-.4Q4.8-2.6 5.8-4.1"/><path d="M3.9-.4Q4.8 2.3 5.8 4.1"/><path d="M7.8-.4Q8.7-2 9.8-3.1"/><path d="M7.8-.4Q8.7 1.7 9.8 3.1"/></g></g><g transform="translate(34 40) rotate(-86.4)"><path d="M0 0C2.9-6 9.1-5.7 13 0Q6.5-.8 0 0Z" fill="url(#a3)"/><path d="M0 0Q6.5-.8 13 0C9.1 5.4 2.9 6 0 0Z" fill="url(#a4)"/><path d="M0 0Q6.5-.8 12.5 0" fill="none" stroke="#e2f3bf" stroke-width=".5" stroke-opacity=".7" stroke-linecap="round"/><g fill="none" stroke="#e2f3bf" stroke-width=".3" stroke-opacity=".5"><path d="M3.9-.4Q4.8-2.6 5.8-4.1"/><path d="M3.9-.4Q4.8 2.3 5.8 4.1"/><path d="M7.8-.4Q8.7-2 9.8-3.1"/><path d="M7.8-.4Q8.7 1.7 9.8 3.1"/></g></g><g transform="translate(34 40) rotate(-44.7)"><path d="M0 0C2.9-6 9.1-5.7 13 0Q6.5-.8 0 0Z" fill="url(#a3)"/><path d="M0 0Q6.5-.8 13 0C9.1 5.4 2.9 6 0 0Z" fill="url(#a4)"/><path d="M0 0Q6.5-.8 12.5 0" fill="none" stroke="#e2f3bf" stroke-width=".5" stroke-opacity=".7" stroke-linecap="round"/><g fill="none" stroke="#e2f3bf" stroke-width=".3" stroke-opacity=".5"><path d="M3.9-.4Q4.8-2.6 5.8-4.1"/><path d="M3.9-.4Q4.8 2.3 5.8 4.1"/><path d="M7.8-.4Q8.7-2 9.8-3.1"/><path d="M7.8-.4Q8.7 1.7 9.8 3.1"/></g></g><g fill="none"><path d="M56 104C56 80 50 50 50 32" stroke="url(#a5)" stroke-width="9" stroke-linecap="round"/><path d="M54 104C54 80 48 50 48 34" stroke="#ffffff" stroke-width="1.2" stroke-opacity=".5"/></g><g transform="translate(50 32) rotate(-135.5)"><path d="M0 0C2.9-6 9.1-5.7 13 0Q6.5-.8 0 0Z" fill="url(#a3)"/><path d="M0 0Q6.5-.8 13 0C9.1 5.4 2.9 6 0 0Z" fill="url(#a4)"/><path d="M0 0Q6.5-.8 12.5 0" fill="none" stroke="#e2f3bf" stroke-width=".5" stroke-opacity=".7" stroke-linecap="round"/><g fill="none" stroke="#e2f3bf" stroke-width=".3" stroke-opacity=".5"><path d="M3.9-.4Q4.8-2.6 5.8-4.1"/><path d="M3.9-.4Q4.8 2.3 5.8 4.1"/><path d="M7.8-.4Q8.7-2 9.8-3.1"/><path d="M7.8-.4Q8.7 1.7 9.8 3.1"/></g></g><g transform="translate(50 32) rotate(-80.3)"><path d="M0 0C2.9-6 9.1-5.7 13 0Q6.5-.8 0 0Z" fill="url(#a3)"/><path d="M0 0Q6.5-.8 13 0C9.1 5.4 2.9 6 0 0Z" fill="url(#a4)"/><path d="M0 0Q6.5-.8 12.5 0" fill="none" stroke="#e2f3bf" stroke-width=".5" stroke-opacity=".7" stroke-linecap="round"/><g fill="none" stroke="#e2f3bf" stroke-width=".3" stroke-opacity=".5"><path d="M3.9-.4Q4.8-2.6 5.8-4.1"/><path d="M3.9-.4Q4.8 2.3 5.8 4.1"/><path d="M7.8-.4Q8.7-2 9.8-3.1"/><path d="M7.8-.4Q8.7 1.7 9.8 3.1"/></g></g><g transform="translate(50 32) rotate(-15)"><path d="M0 0C2.9-6 9.1-5.7 13 0Q6.5-.8 0 0Z" fill="url(#a3)"/><path d="M0 0Q6.5-.8 13 0C9.1 5.4 2.9 6 0 0Z" fill="url(#a4)"/><path d="M0 0Q6.5-.8 12.5 0" fill="none" stroke="#e2f3bf" stroke-width=".5" stroke-opacity=".7" stroke-linecap="round"/><g fill="none" stroke="#e2f3bf" stroke-width=".3" stroke-opacity=".5"><path d="M3.9-.4Q4.8-2.6 5.8-4.1"/><path d="M3.9-.4Q4.8 2.3 5.8 4.1"/><path d="M7.8-.4Q8.7-2 9.8-3.1"/><path d="M7.8-.4Q8.7 1.7 9.8 3.1"/></g></g><g fill="none"><path d="M62 104C62 80 66 50 66 30" stroke="url(#a6)" stroke-width="9" stroke-linecap="round"/><path d="M60 104C60 80 64 50 64 32" stroke="#ffffff" stroke-width="1.2" stroke-opacity=".5"/></g><g transform="translate(66 30) rotate(-157.1)"><path d="M0 0C2.9-6 9.1-5.7 13 0Q6.5-.8 0 0Z" fill="url(#a3)"/><path d="M0 0Q6.5-.8 13 0C9.1 5.4 2.9 6 0 0Z" fill="url(#a4)"/><path d="M0 0Q6.5-.8 12.5 0" fill="none" stroke="#e2f3bf" stroke-width=".5" stroke-opacity=".7" stroke-linecap="round"/><g fill="none" stroke="#e2f3bf" stroke-width=".3" stroke-opacity=".5"><path d="M3.9-.4Q4.8-2.6 5.8-4.1"/><path d="M3.9-.4Q4.8 2.3 5.8 4.1"/><path d="M7.8-.4Q8.7-2 9.8-3.1"/><path d="M7.8-.4Q8.7 1.7 9.8 3.1"/></g></g><g transform="translate(66 30) rotate(-99)"><path d="M0 0C2.9-6 9.1-5.7 13 0Q6.5-.8 0 0Z" fill="url(#a3)"/><path d="M0 0Q6.5-.8 13 0C9.1 5.4 2.9 6 0 0Z" fill="url(#a4)"/><path d="M0 0Q6.5-.8 12.5 0" fill="none" stroke="#e2f3bf" stroke-width=".5" stroke-opacity=".7" stroke-linecap="round"/><g fill="none" stroke="#e2f3bf" stroke-width=".3" stroke-opacity=".5"><path d="M3.9-.4Q4.8-2.6 5.8-4.1"/><path d="M3.9-.4Q4.8 2.3 5.8 4.1"/><path d="M7.8-.4Q8.7-2 9.8-3.1"/><path d="M7.8-.4Q8.7 1.7 9.8 3.1"/></g></g><g transform="translate(66 30) rotate(-43.4)"><path d="M0 0C2.9-6 9.1-5.7 13 0Q6.5-.8 0 0Z" fill="url(#a3)"/><path d="M0 0Q6.5-.8 13 0C9.1 5.4 2.9 6 0 0Z" fill="url(#a4)"/><path d="M0 0Q6.5-.8 12.5 0" fill="none" stroke="#e2f3bf" stroke-width=".5" stroke-opacity=".7" stroke-linecap="round"/><g fill="none" stroke="#e2f3bf" stroke-width=".3" stroke-opacity=".5"><path d="M3.9-.4Q4.8-2.6 5.8-4.1"/><path d="M3.9-.4Q4.8 2.3 5.8 4.1"/><path d="M7.8-.4Q8.7-2 9.8-3.1"/><path d="M7.8-.4Q8.7 1.7 9.8 3.1"/></g></g><g fill="none"><path d="M68 104C68 80 84 50 84 38" stroke="url(#a7)" stroke-width="9" stroke-linecap="round"/><path d="M66 104C66 80 82 50 82 40" stroke="#ffffff" stroke-width="1.2" stroke-opacity=".5"/></g><g transform="translate(84 38) rotate(-159.2)"><path d="M0 0C2.9-6 9.1-5.7 13 0Q6.5-.8 0 0Z" fill="url(#a3)"/><path d="M0 0Q6.5-.8 13 0C9.1 5.4 2.9 6 0 0Z" fill="url(#a4)"/><path d="M0 0Q6.5-.8 12.5 0" fill="none" stroke="#e2f3bf" stroke-width=".5" stroke-opacity=".7" stroke-linecap="round"/><g fill="none" stroke="#e2f3bf" stroke-width=".3" stroke-opacity=".5"><path d="M3.9-.4Q4.8-2.6 5.8-4.1"/><path d="M3.9-.4Q4.8 2.3 5.8 4.1"/><path d="M7.8-.4Q8.7-2 9.8-3.1"/><path d="M7.8-.4Q8.7 1.7 9.8 3.1"/></g></g><g transform="translate(84 38) rotate(-104.3)"><path d="M0 0C2.9-6 9.1-5.7 13 0Q6.5-.8 0 0Z" fill="url(#a3)"/><path d="M0 0Q6.5-.8 13 0C9.1 5.4 2.9 6 0 0Z" fill="url(#a4)"/><path d="M0 0Q6.5-.8 12.5 0" fill="none" stroke="#e2f3bf" stroke-width=".5" stroke-opacity=".7" stroke-linecap="round"/><g fill="none" stroke="#e2f3bf" stroke-width=".3" stroke-opacity=".5"><path d="M3.9-.4Q4.8-2.6 5.8-4.1"/><path d="M3.9-.4Q4.8 2.3 5.8 4.1"/><path d="M7.8-.4Q8.7-2 9.8-3.1"/><path d="M7.8-.4Q8.7 1.7 9.8 3.1"/></g></g><g transform="translate(84 38) rotate(-24.2)"><path d="M0 0C2.9-6 9.1-5.7 13 0Q6.5-.8 0 0Z" fill="url(#a3)"/><path d="M0 0Q6.5-.8 13 0C9.1 5.4 2.9 6 0 0Z" fill="url(#a4)"/><path d="M0 0Q6.5-.8 12.5 0" fill="none" stroke="#e2f3bf" stroke-width=".5" stroke-opacity=".7" stroke-linecap="round"/><g fill="none" stroke="#e2f3bf" stroke-width=".3" stroke-opacity=".5"><path d="M3.9-.4Q4.8-2.6 5.8-4.1"/><path d="M3.9-.4Q4.8 2.3 5.8 4.1"/><path d="M7.8-.4Q8.7-2 9.8-3.1"/><path d="M7.8-.4Q8.7 1.7 9.8 3.1"/></g></g><g fill="none"><path d="M58 104C58 80 58 50 58 36" stroke="url(#a8)" stroke-width="9" stroke-linecap="round"/><path d="M56 104C56 80 56 50 56 38" stroke="#ffffff" stroke-width="1.2" stroke-opacity=".5"/></g><g transform="translate(58 36) rotate(-154)"><path d="M0 0C2.9-6 9.1-5.7 13 0Q6.5-.8 0 0Z" fill="url(#a3)"/><path d="M0 0Q6.5-.8 13 0C9.1 5.4 2.9 6 0 0Z" fill="url(#a4)"/><path d="M0 0Q6.5-.8 12.5 0" fill="none" stroke="#e2f3bf" stroke-width=".5" stroke-opacity=".7" stroke-linecap="round"/><g fill="none" stroke="#e2f3bf" stroke-width=".3" stroke-opacity=".5"><path d="M3.9-.4Q4.8-2.6 5.8-4.1"/><path d="M3.9-.4Q4.8 2.3 5.8 4.1"/><path d="M7.8-.4Q8.7-2 9.8-3.1"/><path d="M7.8-.4Q8.7 1.7 9.8 3.1"/></g></g><g transform="translate(58 36) rotate(-80.5)"><path d="M0 0C2.9-6 9.1-5.7 13 0Q6.5-.8 0 0Z" fill="url(#a3)"/><path d="M0 0Q6.5-.8 13 0C9.1 5.4 2.9 6 0 0Z" fill="url(#a4)"/><path d="M0 0Q6.5-.8 12.5 0" fill="none" stroke="#e2f3bf" stroke-width=".5" stroke-opacity=".7" stroke-linecap="round"/><g fill="none" stroke="#e2f3bf" stroke-width=".3" stroke-opacity=".5"><path d="M3.9-.4Q4.8-2.6 5.8-4.1"/><path d="M3.9-.4Q4.8 2.3 5.8 4.1"/><path d="M7.8-.4Q8.7-2 9.8-3.1"/><path d="M7.8-.4Q8.7 1.7 9.8 3.1"/></g></g><g transform="translate(58 36) rotate(-22.2)"><path d="M0 0C2.9-6 9.1-5.7 13 0Q6.5-.8 0 0Z" fill="url(#a3)"/><path d="M0 0Q6.5-.8 13 0C9.1 5.4 2.9 6 0 0Z" fill="url(#a4)"/><path d="M0 0Q6.5-.8 12.5 0" fill="none" stroke="#e2f3bf" stroke-width=".5" stroke-opacity=".7" stroke-linecap="round"/><g fill="none" stroke="#e2f3bf" stroke-width=".3" stroke-opacity=".5"><path d="M3.9-.4Q4.8-2.6 5.8-4.1"/><path d="M3.9-.4Q4.8 2.3 5.8 4.1"/><path d="M7.8-.4Q8.7-2 9.8-3.1"/><path d="M7.8-.4Q8.7 1.7 9.8 3.1"/></g></g><path d="M44 88C52 86 68 86 76 88L76 93C68 91 52 91 44 93Z" fill="#c8905a"/></svg>
