<svg xmlns="http://www.w3.org/2000/svg" viewBox="0 0 120 120" width="120" height="120"><defs><radialGradient id="a1" cx="0.50" cy="0.50" r="0.50"><stop offset="0.00" stop-color="#000" stop-opacity="0.55"/><stop offset="0.50" stop-color="#000" stop-opacity="0.28"/><stop offset="1.00" stop-color="#000" stop-opacity="0.00"/></radialGradient><radialGradient id="a2" cx="0.34" cy="0.42" r="0.82"><stop offset="0.00" stop-color="#b87aa4"/><stop offset="0.40" stop-color="#6e3058"/><stop offset="0.80" stop-color="#3a1432"/><stop offset="1.00" stop-color="#1c0818"/></radialGradient><clipPath id="a3"><path d="M44 31C49 31 51 37 55 43C65 56 71 70 67 86C63 101 33 102 27 88C21 73 29 56 37 44C41 38 40 31 44 31Z"/></clipPath><linearGradient id="a4" x1="0.15" y1="0.05" x2="0.85" y2="1.00"><stop offset="0.00" stop-color="#e0a8d0" stop-opacity="0.00"/><stop offset="0.55" stop-color="#e0a8d0" stop-opacity="0.00"/><stop offset="1.00" stop-color="#e0a8d0" stop-opacity="0.35"/></linearGradient><clipPath id="a5"><path d="M44 31C49 31 51 37 55 43C65 56 71 70 67 86C63 101 33 102 27 88C21 73 29 56 37 44C41 38 40 31 44 31Z"/></clipPath><radialGradient id="a6" cx="0.50" cy="0.50" r="0.50"><stop offset="0.00" stop-color="#fff" stop-opacity="0.35"/><stop offset="0.45" stop-color="#fff" stop-opacity="0.14"/><stop offset="1.00" stop-color="#fff" stop-opacity="0.00"/></radialGradient><radialGradient id="a7" cx="0.40" cy="0.40" r="0.80"><stop offset="0.00" stop-color="#8a4a78"/><stop offset="1.00" stop-color="#3e1434"/></radialGradient><radialGradient id="a8" cx="0.45" cy="0.45" r="0.70"><stop offset="0.00" stop-color="#fff4dc"/><stop offset="0.70" stop-color="#f2e2bc"/><stop offset="1.00" stop-color="#dcc494"/></radialGradient><radialGradient id="a9" cx="0.50" cy="0.55" r="0.60"><stop offset="0.00" stop-color="#ff9aa0"/><stop offset="0.50" stop-color="#e04a64"/><stop offset="1.00" stop-color="#9a1a3a"/></radialGradient></defs><ellipse cx="46" cy="101" rx="24" ry="4" fill="url(#a1)"/><ellipse cx="82" cy="102" rx="22" ry="3.5" fill="url(#a1)"/><path d="M44 31C49 31 51 37 55 43C65 56 71 70 67 86C63 101 33 102 27 88C21 73 29 56 37 44C41 38 40 31 44 31Z" fill="url(#a2)"/><path d="M44 31C49 31 51 37 55 43C65 56 71 70 67 86C63 101 33 102 27 88C21 73 29 56 37 44C41 38 40 31 44 31Z" fill="none" stroke="url(#a4)" stroke-width="3" clip-path="url(#a3)"/><g clip-path="url(#a5)" fill="none" stroke="#e8b8d8" stroke-opacity=".16" stroke-width="1.4"><path d="M44 34C36 50 30 70 34 98"/><path d="M45 34C44 56 44 78 46 99"/><path d="M46 34C54 52 62 70 60 96"/></g><ellipse cx="36" cy="60" rx="4" ry="8" fill="url(#a6)" transform="rotate(-15 36 60)"/><path d="M44 32C44 27 45 23 48 20" fill="none" stroke="#5a6a24" stroke-width="3" stroke-linecap="round"/><path d="M44 32C44 27 45 23 48 20" fill="none" stroke="#a8b86a" stroke-width="0.9" stroke-linecap="round" stroke-opacity="0.7" transform="translate(-.5 -.3)"/><path d="M82 46C86 46 88 52 91 58C100 70 104 82 100 93C96 105 68 105 64 93C60 82 64 70 73 58C76 52 78 46 82 46Z" fill="url(#a7)"/><g transform="translate(82 82) scale(.87) translate(-82 -82)"><path d="M82 46C86 46 88 52 91 58C100 70 104 82 100 93C96 105 68 105 64 93C60 82 64 70 73 58C76 52 78 46 82 46Z" fill="url(#a8)"/></g><g transform="translate(82 85) scale(.64) translate(-82 -85)"><path d="M82 46C86 46 88 52 91 58C100 70 104 82 100 93C96 105 68 105 64 93C60 82 64 70 73 58C76 52 78 46 82 46Z" fill="url(#a9)"/></g><ellipse cx="84.6" cy="75.1" rx="0.7" ry="1.3" fill="#fbe2a8" fill-opacity="0.8" transform="rotate(375 84.6 75.1)"/><ellipse cx="76.2" cy="86.6" rx="0.7" ry="1.3" fill="#fbe2a8" fill-opacity="0.8" transform="rotate(264 76.2 86.6)"/><ellipse cx="90.6" cy="86" rx="0.7" ry="1.3" fill="#fbe2a8" fill-opacity="0.8" transform="rotate(90 90.6 86)"/><ellipse cx="73" cy="88" rx="0.7" ry="1.3" fill="#fbe2a8" fill-opacity="0.8" transform="rotate(259 73 88)"/><ellipse cx="75.6" cy="93.8" rx="0.7" ry="1.3" fill="#fbe2a8" fill-opacity="0.8" transform="rotate(224 75.6 93.8)"/><ellipse cx="80.7" cy="97.1" rx="0.7" ry="1.3" fill="#fbe2a8" fill-opacity="0.8" transform="rotate(188 80.7 97.1)"/><ellipse cx="81.1" cy="77.8" rx="0.7" ry="1.3" fill="#fbe2a8" fill-opacity="0.8" transform="rotate(352 81.1 77.8)"/><ellipse cx="73.6" cy="83.5" rx="0.7" ry="1.3" fill="#fbe2a8" fill-opacity="0.8" transform="rotate(283 73.6 83.5)"/><ellipse cx="84.8" cy="94.8" rx="0.7" ry="1.3" fill="#fbe2a8" fill-opacity="0.8" transform="rotate(159 84.8 94.8)"/><ellipse cx="84" cy="79.5" rx="0.7" ry="1.3" fill="#fbe2a8" fill-opacity="0.8" transform="rotate(379 84 79.5)"/><ellipse cx="84.9" cy="76.2" rx="0.7" ry="1.3" fill="#fbe2a8" fill-opacity="0.8" transform="rotate(379 84.9 76.2)"/><ellipse cx="85.6" cy="79.7" rx="0.7" ry="1.3" fill="#fbe2a8" fill-opacity="0.8" transform="rotate(393 85.6 79.7)"/><ellipse cx="89.8" cy="92.2" rx="0.7" ry="1.3" fill="#fbe2a8" fill-opacity="0.8" transform="rotate(123 89.8 92.2)"/><ellipse cx="84.4" cy="78" rx="0.7" ry="1.3" fill="#fbe2a8" fill-opacity="0.8" transform="rotate(379 84.4 78)"/><ellipse cx="86.4" cy="89.5" rx="0.7" ry="1.3" fill="#fbe2a8" fill-opacity="0.8" transform="rotate(123 86.4 89.5)"/><ellipse cx="78" cy="80.6" rx="0.7" ry="1.3" fill="#fbe2a8" fill-opacity="0.8" transform="rotate(318 78 80.6)"/><ellipse cx="89.7" cy="83.1" rx="0.7" ry="1.3" fill="#fbe2a8" fill-opacity="0.8" transform="rotate(432 89.7 83.1)"/><ellipse cx="84.6" cy="95.7" rx="0.7" ry="1.3" fill="#fbe2a8" fill-opacity="0.8" transform="rotate(162 84.6 95.7)"/><ellipse cx="75.5" cy="95.3" rx="0.7" ry="1.3" fill="#fbe2a8" fill-opacity="0.8" transform="rotate(219 75.5 95.3)"/><ellipse cx="88.4" cy="81.1" rx="0.7" ry="1.3" fill="#fbe2a8" fill-opacity="0.8" transform="rotate(417 88.4 81.1)"/><ellipse cx="76.6" cy="77.8" rx="0.7" ry="1.3" fill="#fbe2a8" fill-opacity="0.8" transform="rotate(322 76.6 77.8)"/><ellipse cx="85.5" cy="74.4" rx="0.7" ry="1.3" fill="#fbe2a8" fill-opacity="0.8" transform="rotate(379 85.5 74.4)"/><ellipse cx="88.5" cy="87.4" rx="0.7" ry="1.3" fill="#fbe2a8" fill-opacity="0.8" transform="rotate(100 88.5 87.4)"/><ellipse cx="77.1" cy="81.6" rx="0.7" ry="1.3" fill="#fbe2a8" fill-opacity="0.8" transform="rotate(306 77.1 81.6)"/><ellipse cx="78.4" cy="83.3" rx="0.7" ry="1.3" fill="#fbe2a8" fill-opacity="0.8" transform="rotate(302 78.4 83.3)"/><ellipse cx="87.6" cy="79.7" rx="0.7" ry="1.3" fill="#fbe2a8" fill-opacity="0.8" transform="rotate(406 87.6 79.7)"/><ellipse cx="88.4" cy="92.8" rx="0.7" ry="1.3" fill="#fbe2a8" fill-opacity="0.8" transform="rotate(132 88.4 92.8)"/><ellipse cx="80" cy="91.8" rx="0.7" ry="1.3" fill="#fbe2a8" fill-opacity="0.8" transform="rotate(202 80 91.8)"/><ellipse cx="77.3" cy="86.6" rx="0.7" ry="1.3" fill="#fbe2a8" fill-opacity="0.8" transform="rotate(264 77.3 86.6)"/><ellipse cx="84.4" cy="97.3" rx="0.7" ry="1.3" fill="#fbe2a8" fill-opacity="0.8" transform="rotate(165 84.4 97.3)"/><ellipse cx="80.9" cy="82" rx="0.7" ry="1.3" fill="#fbe2a8" fill-opacity="0.8" transform="rotate(341 80.9 82)"/><ellipse cx="82.6" cy="81.8" rx="0.7" ry="1.3" fill="#fbe2a8" fill-opacity="0.8" transform="rotate(370 82.6 81.8)"/><ellipse cx="77" cy="96.3" rx="0.7" ry="1.3" fill="#fbe2a8" fill-opacity="0.8" transform="rotate(209 77 96.3)"/><ellipse cx="77.5" cy="81" rx="0.7" ry="1.3" fill="#fbe2a8" fill-opacity="0.8" transform="rotate(313 77.5 81)"/><ellipse cx="77.1" cy="91.6" rx="0.7" ry="1.3" fill="#fbe2a8" fill-opacity="0.8" transform="rotate(225 77.1 91.6)"/><ellipse cx="89.3" cy="94.9" rx="0.7" ry="1.3" fill="#fbe2a8" fill-opacity="0.8" transform="rotate(135 89.3 94.9)"/><ellipse cx="88.6" cy="88.8" rx="0.7" ry="1.3" fill="#fbe2a8" fill-opacity="0.8" transform="rotate(109 88.6 88.8)"/><ellipse cx="81.8" cy="77.9" rx="0.7" ry="1.3" fill="#fbe2a8" fill-opacity="0.8" transform="rotate(358 81.8 77.9)"/><ellipse cx="87.6" cy="85.2" rx="0.7" ry="1.3" fill="#fbe2a8" fill-opacity="0.8" transform="rotate(443 87.6 85.2)"/><ellipse cx="91.8" cy="84.5" rx="0.7" ry="1.3" fill="#fbe2a8" fill-opacity="0.8" transform="rotate(442 91.8 84.5)"/><ellipse cx="77.2" cy="75.7" rx="0.7" ry="1.3" fill="#fbe2a8" fill-opacity="0.8" transform="rotate(331 77.2 75.7)"/><ellipse cx="73" cy="89.7" rx="0.7" ry="1.3" fill="#fbe2a8" fill-opacity="0.8" transform="rotate(250 73 89.7)"/><ellipse cx="84.2" cy="77.3" rx="0.7" ry="1.3" fill="#fbe2a8" fill-opacity="0.8" transform="rotate(376 84.2 77.3)"/><ellipse cx="73.3" cy="87.9" rx="0.7" ry="1.3" fill="#fbe2a8" fill-opacity="0.8" transform="rotate(259 73.3 87.9)"/><ellipse cx="78.4" cy="88.7" rx="0.7" ry="1.3" fill="#fbe2a8" fill-opacity="0.8" transform="rotate(237 78.4 88.7)"/><ellipse cx="81.9" cy="79.1" rx="0.7" ry="1.3" fill="#fbe2a8" fill-opacity="0.8" transform="rotate(358 81.9 79.1)"/><ellipse cx="74" cy="74" rx="3" ry="6" fill="url(#a6)" transform="rotate(-20 74 74)"/></svg>
