<svg xmlns="http://www.w3.org/2000/svg" viewBox="0 0 120 120" width="120" height="120"><defs><radialGradient id="a1" cx="0.50" cy="0.50" r="0.50"><stop offset="0.00" stop-color="#000" stop-opacity="0.55"/><stop offset="0.50" stop-color="#000" stop-opacity="0.28"/><stop offset="1.00" stop-color="#000" stop-opacity="0.00"/></radialGradient><radialGradient id="a2" cx="0.40" cy="0.20" r="0.90"><stop offset="0.00" stop-color="#b0d878"/><stop offset="0.40" stop-color="#5a9a30"/><stop offset="0.80" stop-color="#2e5e18"/><stop offset="1.00" stop-color="#12280a"/></radialGradient><clipPath id="a3"><path d="M14 58C30 52 70 50 104 56C108 57 108 61 104 62C70 58 30 61 14 58Z"/></clipPath><linearGradient id="a4" x1="0.15" y1="0.05" x2="0.85" y2="1.00"><stop offset="0.00" stop-color="#e0f8b0" stop-opacity="0.00"/><stop offset="0.55" stop-color="#e0f8b0" stop-opacity="0.00"/><stop offset="1.00" stop-color="#e0f8b0" stop-opacity="0.30"/></linearGradient><radialGradient id="a5" cx="0.40" cy="0.20" r="0.90"><stop offset="0.00" stop-color="#c8e88a"/><stop offset="0.40" stop-color="#6aa83a"/><stop offset="0.80" stop-color="#3a6e1e"/><stop offset="1.00" stop-color="#16320a"/></radialGradient><clipPath id="a6"><path d="M14 66C30 60 70 58 104 64C108 65 108 69 104 70C70 66 30 69 14 66Z"/></clipPath><clipPath id="a7"><path d="M14 74C30 68 70 66 104 72C108 73 108 77 104 78C70 74 30 77 14 74Z"/></clipPath><clipPath id="a8"><path d="M14 82C30 76 70 74 104 80C108 81 108 85 104 86C70 82 30 85 14 82Z"/></clipPath><clipPath id="a9"><path d="M14 90C30 84 70 82 104 88C108 89 108 93 104 94C70 90 30 93 14 90Z"/></clipPath></defs><ellipse cx="60" cy="100" rx="48" ry="4.5" fill="url(#a1)"/><g transform="rotate(-14 60 58)"><path d="M14 58C30 52 70 50 104 56C108 57 108 61 104 62C70 58 30 61 14 58Z" fill="url(#a2)"/><path d="M14 58C30 52 70 50 104 56C108 57 108 61 104 62C70 58 30 61 14 58Z" fill="none" stroke="url(#a4)" stroke-width="1.6" clip-path="url(#a3)"/><path d="M18 58C40 54 72 53 102 57" fill="none" stroke="#e8f8c8" stroke-opacity="0.5" stroke-width="0.8"/><path d="M104 59C108 58 112 56 114 53" fill="none" stroke="#6a8a3a" stroke-width="1" stroke-linecap="round"/></g><g transform="rotate(-8 60 66)"><path d="M14 66C30 60 70 58 104 64C108 65 108 69 104 70C70 66 30 69 14 66Z" fill="url(#a5)"/><path d="M14 66C30 60 70 58 104 64C108 65 108 69 104 70C70 66 30 69 14 66Z" fill="none" stroke="url(#a4)" stroke-width="1.6" clip-path="url(#a6)"/><path d="M18 66C40 62 72 61 102 65" fill="none" stroke="#e8f8c8" stroke-opacity="0.5" stroke-width="0.8"/><path d="M104 67C108 66 112 64 114 61" fill="none" stroke="#6a8a3a" stroke-width="1" stroke-linecap="round"/></g><g transform="rotate(-4 60 74)"><path d="M14 74C30 68 70 66 104 72C108 73 108 77 104 78C70 74 30 77 14 74Z" fill="url(#a2)"/><path d="M14 74C30 68 70 66 104 72C108 73 108 77 104 78C70 74 30 77 14 74Z" fill="none" stroke="url(#a4)" stroke-width="1.6" clip-path="url(#a7)"/><path d="M18 74C40 70 72 69 102 73" fill="none" stroke="#e8f8c8" stroke-opacity="0.5" stroke-width="0.8"/><path d="M104 75C108 74 112 72 114 69" fill="none" stroke="#6a8a3a" stroke-width="1" stroke-linecap="round"/></g><g transform="rotate(2 60 82)"><path d="M14 82C30 76 70 74 104 80C108 81 108 85 104 86C70 82 30 85 14 82Z" fill="url(#a5)"/><path d="M14 82C30 76 70 74 104 80C108 81 108 85 104 86C70 82 30 85 14 82Z" fill="none" stroke="url(#a4)" stroke-width="1.6" clip-path="url(#a8)"/><path d="M18 82C40 78 72 77 102 81" fill="none" stroke="#e8f8c8" stroke-opacity="0.5" stroke-width="0.8"/><path d="M104 83C108 82 112 80 114 77" fill="none" stroke="#6a8a3a" stroke-width="1" stroke-linecap="round"/></g><g transform="rotate(6 60 90)"><path d="M14 90C30 84 70 82 104 88C108 89 108 93 104 94C70 90 30 93 14 90Z" fill="url(#a2)"/><path d="M14 90C30 84 70 82 104 88C108 89 108 93 104 94C70 90 30 93 14 90Z" fill="none" stroke="url(#a4)" stroke-width="1.6" clip-path="url(#a9)"/><path d="M18 90C40 86 72 85 102 89" fill="none" stroke="#e8f8c8" stroke-opacity="0.5" stroke-width="0.8"/><path d="M104 91C108 90 112 88 114 85" fill="none" stroke="#6a8a3a" stroke-width="1" stroke-linecap="round"/></g></svg>
