<svg xmlns="http://www.w3.org/2000/svg" viewBox="0 0 120 120" width="120" height="120"><defs><linearGradient id="a1" x1="0.00" y1="0.00" x2="1.00" y2="0.00"><stop offset="0.00" stop-color="#3e6a32"/><stop offset="0.45" stop-color="#8ab86a"/><stop offset="1.00" stop-color="#3e6a32"/></linearGradient><linearGradient id="a2" x1="0.00" y1="0.00" x2="1.00" y2="0.00"><stop offset="0.00" stop-color="#1e3c1a"/><stop offset="0.50" stop-color="#3e6a32"/><stop offset="1.00" stop-color="#1e3c1a"/></linearGradient><radialGradient id="a3" cx="0.50" cy="0.50" r="0.50"><stop offset="0.00" stop-color="#000" stop-opacity="0.55"/><stop offset="0.50" stop-color="#000" stop-opacity="0.28"/><stop offset="1.00" stop-color="#000" stop-opacity="0.00"/></radialGradient><radialGradient id="a4" cx="0.34" cy="0.30" r="0.82"><stop offset="0.00" stop-color="#ffe8a0"/><stop offset="0.40" stop-color="#f6b440"/><stop offset="0.80" stop-color="#d0801a"/><stop offset="1.00" stop-color="#6a3a08"/></radialGradient><clipPath id="a5"><path d="M-12 0A12 14 0 1 0 12 0A12 14 0 1 0 -12 0Z"/></clipPath><linearGradient id="a6" x1="0.15" y1="0.05" x2="0.85" y2="1.00"><stop offset="0.00" stop-color="#ffe8c0" stop-opacity="0.00"/><stop offset="0.55" stop-color="#ffe8c0" stop-opacity="0.00"/><stop offset="1.00" stop-color="#ffe8c0" stop-opacity="0.35"/></linearGradient><clipPath id="a7"><path d="M-12 0A12 14 0 1 0 12 0A12 14 0 1 0 -12 0Z"/></clipPath><radialGradient id="a8" cx="0.50" cy="0.50" r="0.50"><stop offset="0.00" stop-color="#fff" stop-opacity="0.60"/><stop offset="0.45" stop-color="#fff" stop-opacity="0.24"/><stop offset="1.00" stop-color="#fff" stop-opacity="0.00"/></radialGradient><clipPath id="a9"><path d="M-12 0A12 14 0 1 0 12 0A12 14 0 1 0 -12 0Z"/></clipPath><clipPath id="a10"><path d="M-12 0A12 14 0 1 0 12 0A12 14 0 1 0 -12 0Z"/></clipPath><clipPath id="a11"><path d="M-12 0A12 14 0 1 0 12 0A12 14 0 1 0 -12 0Z"/></clipPath><clipPath id="a12"><path d="M-12 0A12 14 0 1 0 12 0A12 14 0 1 0 -12 0Z"/></clipPath><clipPath id="a13"><path d="M-12 0A12 14 0 1 0 12 0A12 14 0 1 0 -12 0Z"/></clipPath><clipPath id="a14"><path d="M-12 0A12 14 0 1 0 12 0A12 14 0 1 0 -12 0Z"/></clipPath><clipPath id="a15"><path d="M-12 0A12 14 0 1 0 12 0A12 14 0 1 0 -12 0Z"/></clipPath><clipPath id="a16"><path d="M-12 0A12 14 0 1 0 12 0A12 14 0 1 0 -12 0Z"/></clipPath></defs><g transform="translate(20 44) rotate(-18)"><path d="M-3 0L0 0" stroke="#6b5a2c" stroke-width="2.4" stroke-linecap="round" fill="none"/><path d="M0 0C11.4 -17 36.4 -16.1 52 0Q26 -2.4 0 0Z" fill="url(#a1)"/><path d="M0 0Q26 -2.4 52 0C36.4 15.3 11.4 17 0 0Z" fill="url(#a2)"/><path d="M0 0Q26 -2.4 49.9 0" fill="none" stroke="#d8ecc0" stroke-width="1.4" stroke-opacity="0.7" stroke-linecap="round"/><path d="M5.9 -0.5Q9.5 -5.6 13.7 -9" fill="none" stroke="#d8ecc0" stroke-width="0.8" stroke-opacity="0.5"/><path d="M5.9 -0.5Q9.5 5.2 13.7 9" fill="none" stroke="#d8ecc0" stroke-width="0.8" stroke-opacity="0.5"/><path d="M11.7 -0.8Q15.3 -6.9 19.5 -10.9" fill="none" stroke="#d8ecc0" stroke-width="0.8" stroke-opacity="0.5"/><path d="M11.7 -0.8Q15.3 6.2 19.5 10.9" fill="none" stroke="#d8ecc0" stroke-width="0.8" stroke-opacity="0.5"/><path d="M17.6 -1.1Q21.2 -7.4 25.4 -11.7" fill="none" stroke="#d8ecc0" stroke-width="0.8" stroke-opacity="0.5"/><path d="M17.6 -1.1Q21.2 6.6 25.4 11.7" fill="none" stroke="#d8ecc0" stroke-width="0.8" stroke-opacity="0.5"/><path d="M23.4 -1.2Q27 -7.2 31.2 -11.2" fill="none" stroke="#d8ecc0" stroke-width="0.8" stroke-opacity="0.5"/><path d="M23.4 -1.2Q27 6.2 31.2 11.2" fill="none" stroke="#d8ecc0" stroke-width="0.8" stroke-opacity="0.5"/><path d="M29.2 -1.2Q32.9 -6.2 37 -9.5" fill="none" stroke="#d8ecc0" stroke-width="0.8" stroke-opacity="0.5"/><path d="M29.2 -1.2Q32.9 5.2 37 9.5" fill="none" stroke="#d8ecc0" stroke-width="0.8" stroke-opacity="0.5"/><path d="M35.1 -1Q38.7 -4.4 42.9 -6.7" fill="none" stroke="#d8ecc0" stroke-width="0.8" stroke-opacity="0.5"/><path d="M35.1 -1Q38.7 3.6 42.9 6.7" fill="none" stroke="#d8ecc0" stroke-width="0.8" stroke-opacity="0.5"/><path d="M40.9 -0.8Q44.6 -2.1 48.7 -2.9" fill="none" stroke="#d8ecc0" stroke-width="0.8" stroke-opacity="0.5"/><path d="M40.9 -0.8Q44.6 1.4 48.7 2.9" fill="none" stroke="#d8ecc0" stroke-width="0.8" stroke-opacity="0.5"/></g><path d="M60 38C62 48 60 56 56 62M60 38C68 46 76 52 84 58M60 38C54 46 44 54 34 60" fill="none" stroke="#8a6a3a" stroke-width="1.8" stroke-linecap="round"/><path d="M60 38C62 48 60 56 56 62M60 38C68 46 76 52 84 58M60 38C54 46 44 54 34 60" fill="none" stroke="#c8a878" stroke-width="0.5" stroke-linecap="round" stroke-opacity="0.7" transform="translate(-.5 -.3)"/><ellipse cx="36" cy="91" rx="13" ry="2.2" fill="url(#a3)"/><ellipse cx="60" cy="89" rx="13" ry="2.2" fill="url(#a3)"/><ellipse cx="84" cy="89" rx="13" ry="2.2" fill="url(#a3)"/><ellipse cx="48" cy="107" rx="13" ry="2.2" fill="url(#a3)"/><ellipse cx="74" cy="107" rx="13" ry="2.2" fill="url(#a3)"/><g transform="translate(36 78) rotate(-20)"><path d="M-12 0A12 14 0 1 0 12 0A12 14 0 1 0 -12 0Z" fill="url(#a4)"/><path d="M-12 0A12 14 0 1 0 12 0A12 14 0 1 0 -12 0Z" fill="none" stroke="url(#a6)" stroke-width="2" clip-path="url(#a5)"/><g clip-path="url(#a7)"><circle cx="10.3" cy="1.6" r="0.6" fill="#a85a14" fill-opacity="0.3"/><circle cx="5.9" cy="12.7" r="0.6" fill="#a85a14" fill-opacity="0.3"/><circle cx="-2.8" cy="-11.2" r="0.7" fill="#a85a14" fill-opacity="0.4"/><circle cx="-6.4" cy="6.7" r="0.5" fill="#a85a14" fill-opacity="0.4"/><circle cx="1.3" cy="-3" r="0.4" fill="#a85a14" fill-opacity="0.2"/><circle cx="8.8" cy="-8.1" r="0.6" fill="#a85a14" fill-opacity="0.3"/><circle cx="-1.2" cy="5.6" r="0.5" fill="#a85a14" fill-opacity="0.4"/><circle cx="-9.6" cy="-7.4" r="0.7" fill="#a85a14" fill-opacity="0.2"/><circle cx="-8" cy="-0.1" r="0.7" fill="#a85a14" fill-opacity="0.2"/><circle cx="3.8" cy="2.2" r="0.4" fill="#a85a14" fill-opacity="0.3"/></g><ellipse cx="-4" cy="-5" rx="3.6" ry="2.4" fill="url(#a8)" transform="rotate(-35 -4 -5)"/><circle cx="0" cy="13" r="2.6" fill="#5a3a1a"/><path d="M-2 12L0 15L2 12" fill="none" stroke="#2a1a08" stroke-width="0.6"/></g><g transform="translate(60 76) rotate(4)"><path d="M-12 0A12 14 0 1 0 12 0A12 14 0 1 0 -12 0Z" fill="url(#a4)"/><path d="M-12 0A12 14 0 1 0 12 0A12 14 0 1 0 -12 0Z" fill="none" stroke="url(#a6)" stroke-width="2" clip-path="url(#a9)"/><g clip-path="url(#a10)"><circle cx="-11" cy="1.4" r="0.6" fill="#a85a14" fill-opacity="0.3"/><circle cx="-3.1" cy="7.6" r="0.5" fill="#a85a14" fill-opacity="0.3"/><circle cx="-0" cy="-11.9" r="0.8" fill="#a85a14" fill-opacity="0.2"/><circle cx="6.4" cy="-0.8" r="0.4" fill="#a85a14" fill-opacity="0.3"/><circle cx="1.8" cy="-1" r="0.8" fill="#a85a14" fill-opacity="0.2"/><circle cx="7.2" cy="9.4" r="0.5" fill="#a85a14" fill-opacity="0.3"/><circle cx="-9.9" cy="2.1" r="0.7" fill="#a85a14" fill-opacity="0.3"/><circle cx="6.3" cy="-6.7" r="0.4" fill="#a85a14" fill-opacity="0.3"/><circle cx="5.4" cy="-5.2" r="0.5" fill="#a85a14" fill-opacity="0.4"/><circle cx="3.7" cy="-9.5" r="0.5" fill="#a85a14" fill-opacity="0.4"/></g><ellipse cx="-4" cy="-5" rx="3.6" ry="2.4" fill="url(#a8)" transform="rotate(-35 -4 -5)"/><circle cx="0" cy="13" r="2.6" fill="#5a3a1a"/><path d="M-2 12L0 15L2 12" fill="none" stroke="#2a1a08" stroke-width="0.6"/></g><g transform="translate(84 76) rotate(20)"><path d="M-12 0A12 14 0 1 0 12 0A12 14 0 1 0 -12 0Z" fill="url(#a4)"/><path d="M-12 0A12 14 0 1 0 12 0A12 14 0 1 0 -12 0Z" fill="none" stroke="url(#a6)" stroke-width="2" clip-path="url(#a11)"/><g clip-path="url(#a12)"><circle cx="6.4" cy="-9.3" r="0.7" fill="#a85a14" fill-opacity="0.4"/><circle cx="-10.1" cy="4.7" r="0.6" fill="#a85a14" fill-opacity="0.2"/><circle cx="-8" cy="-6.3" r="0.7" fill="#a85a14" fill-opacity="0.2"/><circle cx="1.8" cy="9.6" r="0.6" fill="#a85a14" fill-opacity="0.4"/><circle cx="-8.5" cy="11.9" r="0.8" fill="#a85a14" fill-opacity="0.4"/><circle cx="-5.9" cy="2.4" r="0.7" fill="#a85a14" fill-opacity="0.2"/><circle cx="-8.1" cy="10.4" r="0.6" fill="#a85a14" fill-opacity="0.4"/><circle cx="-1.8" cy="11.4" r="0.7" fill="#a85a14" fill-opacity="0.2"/><circle cx="-5.8" cy="11.3" r="0.4" fill="#a85a14" fill-opacity="0.4"/><circle cx="3.1" cy="11.4" r="0.5" fill="#a85a14" fill-opacity="0.2"/></g><ellipse cx="-4" cy="-5" rx="3.6" ry="2.4" fill="url(#a8)" transform="rotate(-35 -4 -5)"/><circle cx="0" cy="13" r="2.6" fill="#5a3a1a"/><path d="M-2 12L0 15L2 12" fill="none" stroke="#2a1a08" stroke-width="0.6"/></g><g transform="translate(48 94) rotate(-8)"><path d="M-12 0A12 14 0 1 0 12 0A12 14 0 1 0 -12 0Z" fill="url(#a4)"/><path d="M-12 0A12 14 0 1 0 12 0A12 14 0 1 0 -12 0Z" fill="none" stroke="url(#a6)" stroke-width="2" clip-path="url(#a13)"/><g clip-path="url(#a14)"><circle cx="9.5" cy="0.9" r="0.5" fill="#a85a14" fill-opacity="0.4"/><circle cx="-7.9" cy="5.2" r="0.7" fill="#a85a14" fill-opacity="0.4"/><circle cx="-2.7" cy="-2.5" r="0.5" fill="#a85a14" fill-opacity="0.2"/><circle cx="0.3" cy="-4.4" r="0.6" fill="#a85a14" fill-opacity="0.2"/><circle cx="5.8" cy="2" r="0.4" fill="#a85a14" fill-opacity="0.3"/><circle cx="-1.5" cy="8.7" r="0.5" fill="#a85a14" fill-opacity="0.3"/><circle cx="0.7" cy="8.9" r="0.4" fill="#a85a14" fill-opacity="0.4"/><circle cx="-9.2" cy="-12.3" r="0.5" fill="#a85a14" fill-opacity="0.4"/><circle cx="8.6" cy="-2.4" r="0.5" fill="#a85a14" fill-opacity="0.3"/><circle cx="-4" cy="0.8" r="0.4" fill="#a85a14" fill-opacity="0.4"/></g><ellipse cx="-4" cy="-5" rx="3.6" ry="2.4" fill="url(#a8)" transform="rotate(-35 -4 -5)"/><circle cx="0" cy="13" r="2.6" fill="#5a3a1a"/><path d="M-2 12L0 15L2 12" fill="none" stroke="#2a1a08" stroke-width="0.6"/></g><g transform="translate(74 94) rotate(12)"><path d="M-12 0A12 14 0 1 0 12 0A12 14 0 1 0 -12 0Z" fill="url(#a4)"/><path d="M-12 0A12 14 0 1 0 12 0A12 14 0 1 0 -12 0Z" fill="none" stroke="url(#a6)" stroke-width="2" clip-path="url(#a15)"/><g clip-path="url(#a16)"><circle cx="7.8" cy="-6.4" r="0.6" fill="#a85a14" fill-opacity="0.4"/><circle cx="-6.1" cy="-12.8" r="0.7" fill="#a85a14" fill-opacity="0.3"/><circle cx="-1.6" cy="-6.7" r="0.6" fill="#a85a14" fill-opacity="0.4"/><circle cx="6.3" cy="-3.8" r="0.5" fill="#a85a14" fill-opacity="0.3"/><circle cx="9.6" cy="1.6" r="0.6" fill="#a85a14" fill-opacity="0.4"/><circle cx="9.1" cy="12.7" r="0.5" fill="#a85a14" fill-opacity="0.4"/><circle cx="4.5" cy="-0.7" r="0.7" fill="#a85a14" fill-opacity="0.2"/><circle cx="-0.6" cy="-9.8" r="0.4" fill="#a85a14" fill-opacity="0.4"/><circle cx="10.4" cy="-0.4" r="0.7" fill="#a85a14" fill-opacity="0.3"/><circle cx="-6.1" cy="-5.3" r="0.6" fill="#a85a14" fill-opacity="0.3"/></g><ellipse cx="-4" cy="-5" rx="3.6" ry="2.4" fill="url(#a8)" transform="rotate(-35 -4 -5)"/><circle cx="0" cy="13" r="2.6" fill="#5a3a1a"/><path d="M-2 12L0 15L2 12" fill="none" stroke="#2a1a08" stroke-width="0.6"/></g></svg>
