<svg xmlns="http://www.w3.org/2000/svg" viewBox="0 0 120 120" width="120" height="120"><defs><radialGradient id="a1"><stop stop-color="#000" stop-opacity=".55"/><stop offset=".5" stop-color="#000" stop-opacity=".28"/><stop offset="1" stop-color="#000" stop-opacity="0"/></radialGradient><linearGradient id="a2"><stop stop-color="#5f9a3c"/><stop offset=".45" stop-color="#a4d06a"/><stop offset="1" stop-color="#5f9a3c"/></linearGradient><linearGradient id="a3"><stop stop-color="#335f24"/><stop offset=".5" stop-color="#5f9a3c"/><stop offset="1" stop-color="#335f24"/></linearGradient><radialGradient id="a4" cx=".3" cy=".3" r=".82"><stop stop-color="#ffd08a"/><stop offset=".4" stop-color="#f07a3a"/><stop offset=".8" stop-color="#c02a2a"/><stop offset="1" stop-color="#5a0a10"/></radialGradient><clipPath id="a5"><path d="M44 38C47 35 53 35 56 38C70 38 78 52 76 68C74 86 62 98 46 98C30 98 18 86 18 68C18 52 28 38 44 38Z"/></clipPath><linearGradient id="a6" x1=".15" y1=".05" x2=".85" y2="1"><stop stop-color="#ffe4c6" stop-opacity="0"/><stop offset=".55" stop-color="#ffe4c6" stop-opacity="0"/><stop offset="1" stop-color="#ffe4c6" stop-opacity=".32"/></linearGradient><radialGradient id="a7"><stop stop-color="#b0102a" stop-opacity=".7"/><stop offset=".55" stop-color="#b0102a" stop-opacity=".39"/><stop offset="1" stop-color="#b0102a" stop-opacity="0"/></radialGradient><radialGradient id="a8"><stop stop-color="#f8c860" stop-opacity=".5"/><stop offset=".55" stop-color="#f8c860" stop-opacity=".28"/><stop offset="1" stop-color="#f8c860" stop-opacity="0"/></radialGradient><radialGradient id="a9"><stop stop-color="#fff" stop-opacity=".75"/><stop offset=".45" stop-color="#fff" stop-opacity=".3"/><stop offset="1" stop-color="#fff" stop-opacity="0"/></radialGradient><radialGradient id="a10"><stop stop-color="#fff" stop-opacity=".9"/><stop offset=".45" stop-color="#fff" stop-opacity=".36"/><stop offset="1" stop-color="#fff" stop-opacity="0"/></radialGradient><radialGradient id="a11" cx=".35" cy=".1" r=".95"><stop stop-color="#f07a3a"/><stop offset="1" stop-color="#6a0a10"/></radialGradient><radialGradient id="a12" cx=".45" cy=".4" r=".7"><stop stop-color="#ffe08a"/><stop offset=".6" stop-color="#f8b848"/><stop offset="1" stop-color="#f09a30"/></radialGradient><radialGradient id="a13"><stop stop-color="#d8303a" stop-opacity=".6"/><stop offset=".55" stop-color="#d8303a" stop-opacity=".33"/><stop offset="1" stop-color="#d8303a" stop-opacity="0"/></radialGradient><radialGradient id="a14" cx=".4" cy=".35" r=".75"><stop stop-color="#c86a4a"/><stop offset=".55" stop-color="#8a3a22"/><stop offset="1" stop-color="#4e1a0e"/></radialGradient><radialGradient id="a15"><stop stop-color="#fff" stop-opacity=".5"/><stop offset=".45" stop-color="#fff" stop-opacity=".2"/><stop offset="1" stop-color="#fff" stop-opacity="0"/></radialGradient></defs><g fill="url(#a1)"><ellipse cx="46" cy="101" rx="30" ry="5"/><ellipse cx="90" cy="104" rx="20" ry="3.5"/></g><g transform="translate(50 36) rotate(-40)"><path d="M-3 0L0 0" stroke="#6b5a2c" stroke-width="1.3" stroke-linecap="round" fill="none"/><path d="M0 0C7-9 22.4-8.5 32 0Q16-1.3 0 0Z" fill="url(#a2)"/><path d="M0 0Q16-1.3 32 0C22.4 8.1 7 9 0 0Z" fill="url(#a3)"/><path d="M0 0Q16-1.3 30.7 0" fill="none" stroke="#e2f3bf" stroke-width=".7" stroke-opacity=".7" stroke-linecap="round"/><g fill="none" stroke="#e2f3bf" stroke-width=".4" stroke-opacity=".5"><path d="M5.8-.4Q8-3.4 10.6-5.4"/><path d="M5.8-.4Q8 3.1 10.6 5.4"/><path d="M11.5-.6Q13.8-3.9 16.3-6.2"/><path d="M11.5-.6Q13.8 3.5 16.3 6.2"/><path d="M17.3-.6Q19.5-3.4 22.1-5.3"/><path d="M17.3-.6Q19.5 2.9 22.1 5.3"/><path d="M23-.5Q25.3-1.9 27.8-2.8"/><path d="M23-.5Q25.3 1.5 27.8 2.8"/></g></g><path d="M44 38C47 35 53 35 56 38C70 38 78 52 76 68C74 86 62 98 46 98C30 98 18 86 18 68C18 52 28 38 44 38Z" fill="url(#a4)"/><path d="M44 38C47 35 53 35 56 38C70 38 78 52 76 68C74 86 62 98 46 98C30 98 18 86 18 68C18 52 28 38 44 38Z" fill="none" stroke="url(#a6)" stroke-width="3" clip-path="url(#a5)"/><ellipse cx="58" cy="58" rx="26" ry="28" fill="url(#a7)" clip-path="url(#a5)"/><ellipse cx="30" cy="84" rx="14" ry="12" fill="url(#a8)" clip-path="url(#a5)"/><g clip-path="url(#a5)"><g fill="#ffe0a0" fill-opacity=".4"><circle cx="71.2" cy="47.7" r=".6"/><circle cx="73.7" cy="61.3" r=".6"/><circle cx="41.4" cy="91.1" r=".8"/><circle cx="23.1" cy="95.4" r=".6"/></g><g fill="#ffe0a0" fill-opacity=".3"><circle cx="50.4" cy="68.9" r=".8"/><circle cx="28" cy="96" r=".5"/><circle cx="44.5" cy="90.3" r=".6"/></g><g fill="#ffe0a0" fill-opacity=".5"><circle cx="34.9" cy="52.8" r=".4"/><circle cx="61.1" cy="47.6" r=".5"/><circle cx="59.2" cy="65" r=".6"/></g><g fill="#ffe0a0" fill-opacity=".4"><circle cx="33.4" cy="75.4" r=".4"/><circle cx="33.2" cy="59" r=".6"/></g><g fill="#ffe0a0"><circle cx="70.1" cy="60.4" r=".4" fill-opacity=".5"/><circle cx="71.7" cy="87.2" r=".5" fill-opacity=".3"/><circle cx="62.9" cy="44.5" r=".4" fill-opacity=".4"/><circle cx="32.9" cy="65.9" r=".5" fill-opacity=".5"/><circle cx="47.8" cy="59.4" r=".5" fill-opacity=".3"/><circle cx="63.8" cy="84.6" r=".7" fill-opacity=".5"/><circle cx="53.9" cy="61.5" r=".6" fill-opacity=".3"/><circle cx="40.5" cy="67.2" r=".7" fill-opacity=".4"/><circle cx="25.5" cy="70" r=".5" fill-opacity=".5"/><circle cx="66.9" cy="73.3" r=".7" fill-opacity=".4"/></g></g><path d="M50 40C44 54 43 76 47 97" fill="none" stroke="#6a0a14" stroke-opacity=".4" stroke-width="1.6" clip-path="url(#a5)"/><ellipse cx="32" cy="54" rx="8" ry="5" fill="url(#a9)" transform="rotate(-35 32 54)"/><ellipse cx="36" cy="50" rx="2.4" ry="1.4" fill="url(#a10)" transform="rotate(-35 36 50)"/><g fill="none" stroke-linecap="round"><path d="M50 39L51 34" stroke="#4f3219" stroke-width="2.2"/><path d="M50 39L51 34" stroke="#9a7045" stroke-width=".7" stroke-opacity=".7" transform="translate(-.5 -.3)"/></g><path d="M70 92C70 106 110 106 110 92Z" fill="url(#a11)"/><ellipse cx="90" cy="92" rx="20" ry="9" fill="#c83a2a"/><ellipse cx="90" cy="91.6" rx="18.6" ry="8.2" fill="url(#a12)"/><ellipse cx="90.5" cy="92" rx="11" ry="5.4" fill="url(#a13)"/><ellipse cx="90.5" cy="92" rx="7.5" ry="3.8" fill="url(#a14)"/><ellipse cx="82" cy="89" rx="5" ry="1.6" fill="url(#a15)" transform="rotate(-4 82 89)"/></svg>
