<svg xmlns="http://www.w3.org/2000/svg" viewBox="0 0 120 120" width="120" height="120"><defs><radialGradient id="a1" cx="0.50" cy="0.50" r="0.50"><stop offset="0.00" stop-color="#000" stop-opacity="0.55"/><stop offset="0.50" stop-color="#000" stop-opacity="0.28"/><stop offset="1.00" stop-color="#000" stop-opacity="0.00"/></radialGradient><radialGradient id="a2" cx="0.40" cy="0.25" r="0.90"><stop offset="0.00" stop-color="#ffe07a"/><stop offset="0.40" stop-color="#f4a830"/><stop offset="0.80" stop-color="#b8761a"/><stop offset="1.00" stop-color="#5a3a08"/></radialGradient><clipPath id="a3"><path d="M14 70C14 56 30 48 50 50C70 52 96 58 104 70C110 80 102 92 86 94C66 96 40 94 26 88C18 84 14 78 14 70Z"/></clipPath><linearGradient id="a4" x1="0.15" y1="0.05" x2="0.85" y2="1.00"><stop offset="0.00" stop-color="#ffe4c6" stop-opacity="0.00"/><stop offset="0.55" stop-color="#ffe4c6" stop-opacity="0.00"/><stop offset="1.00" stop-color="#ffe4c6" stop-opacity="0.32"/></linearGradient><clipPath id="a5"><path d="M14 70C14 56 30 48 50 50C70 52 96 58 104 70C110 80 102 92 86 94C66 96 40 94 26 88C18 84 14 78 14 70Z"/></clipPath><radialGradient id="a6" cx="0.50" cy="0.50" r="0.50"><stop offset="0.00" stop-color="#7aa83a" stop-opacity="0.55"/><stop offset="0.55" stop-color="#7aa83a" stop-opacity="0.30"/><stop offset="1.00" stop-color="#7aa83a" stop-opacity="0.00"/></radialGradient><radialGradient id="a7" cx="0.50" cy="0.50" r="0.50"><stop offset="0.00" stop-color="#f07a2a" stop-opacity="0.50"/><stop offset="0.55" stop-color="#f07a2a" stop-opacity="0.28"/><stop offset="1.00" stop-color="#f07a2a" stop-opacity="0.00"/></radialGradient><radialGradient id="a8" cx="0.50" cy="0.50" r="0.50"><stop offset="0.00" stop-color="#fff" stop-opacity="0.45"/><stop offset="0.45" stop-color="#fff" stop-opacity="0.18"/><stop offset="1.00" stop-color="#fff" stop-opacity="0.00"/></radialGradient><radialGradient id="a9" cx="0.50" cy="0.50" r="0.60"><stop offset="0.00" stop-color="#ffb070"/><stop offset="0.70" stop-color="#f47a30"/><stop offset="1.00" stop-color="#d85a1a"/></radialGradient></defs><ellipse cx="60" cy="102" rx="48" ry="5" fill="url(#a1)"/><path d="M14 70C14 56 30 48 50 50C70 52 96 58 104 70C110 80 102 92 86 94C66 96 40 94 26 88C18 84 14 78 14 70Z" fill="url(#a2)"/><path d="M14 70C14 56 30 48 50 50C70 52 96 58 104 70C110 80 102 92 86 94C66 96 40 94 26 88C18 84 14 78 14 70Z" fill="none" stroke="url(#a4)" stroke-width="3" clip-path="url(#a3)"/><ellipse cx="36" cy="64" rx="22" ry="12" fill="url(#a6)" clip-path="url(#a5)"/><ellipse cx="84" cy="80" rx="16" ry="10" fill="url(#a7)" clip-path="url(#a5)"/><ellipse cx="46" cy="58" rx="12" ry="3.5" fill="url(#a8)" transform="rotate(-4 46 58)"/><ellipse cx="104" cy="72" rx="6" ry="19" fill="#3e5a18"/><ellipse cx="104.5" cy="72" rx="5.2" ry="17.6" fill="url(#a9)"/><ellipse cx="105" cy="72" rx="2.4" ry="9" fill="#8a3a14"/><circle cx="104.1" cy="65" r="1.1" fill="#141008"/><circle cx="104.8" cy="67.3" r="1.1" fill="#141008"/><circle cx="104.2" cy="69.6" r="1.1" fill="#141008"/><circle cx="105.5" cy="71.9" r="1.1" fill="#141008"/><circle cx="105" cy="74.2" r="1.1" fill="#141008"/><circle cx="104.1" cy="76.5" r="1.1" fill="#141008"/><circle cx="104.1" cy="78.8" r="1.1" fill="#141008"/></svg>
