<svg xmlns="http://www.w3.org/2000/svg" viewBox="0 0 120 120" width="120" height="120"><defs><radialGradient id="a1"><stop stop-color="#000" stop-opacity=".55"/><stop offset=".5" stop-color="#000" stop-opacity=".28"/><stop offset="1" stop-color="#000" stop-opacity="0"/></radialGradient><radialGradient id="a2" cx=".36" cy=".2" r=".9"><stop stop-color="#fffbe0"/><stop offset=".4" stop-color="#eee8b8"/><stop offset=".8" stop-color="#c0b67a"/><stop offset="1" stop-color="#6a6230"/></radialGradient><clipPath id="a3"><path d="M103 76Q103 76 103.6 79.1Q104.2 82.1 98.6 84.3Q92.9 86.5 88.2 89Q83.5 91.5 75.5 91.8Q67.5 92.1 59.7 92.8Q51.8 93.6 45.2 91.9Q38.5 90.2 31.2 88.8Q24 87.5 21.8 84.5Q19.6 81.6 16.3 78.8Q13 76 16.3 73.2Q19.6 70.4 21.8 67.5Q24 64.5 31.2 63.2Q38.5 61.8 45.2 60.1Q51.8 58.4 59.7 59.2Q67.5 59.9 75.5 60.2Q83.5 60.5 88.2 63Q92.9 65.5 98.6 67.7Q104.2 69.9 103.6 72.9Z"/></clipPath><linearGradient id="a4" x1=".15" y1=".05" x2=".85" y2="1"><stop stop-color="#ffffff" stop-opacity="0"/><stop offset=".55" stop-color="#ffffff" stop-opacity="0"/><stop offset="1" stop-color="#ffffff" stop-opacity=".35"/></linearGradient><radialGradient id="a5" cx=".45" cy=".4" r=".7"><stop stop-color="#fffff0"/><stop offset="1" stop-color="#e8e2b0"/></radialGradient><linearGradient id="a6"><stop stop-color="#a8b870"/><stop offset="1" stop-color="#5a6a2a"/></linearGradient><radialGradient id="a7"><stop stop-color="#fff" stop-opacity=".5"/><stop offset=".45" stop-color="#fff" stop-opacity=".2"/><stop offset="1" stop-color="#fff" stop-opacity="0"/></radialGradient></defs><ellipse cx="60" cy="101" rx="46" ry="5" fill="url(#a1)"/><path d="M103 76Q103 76 103.6 79.1Q104.2 82.1 98.6 84.3Q92.9 86.5 88.2 89Q83.5 91.5 75.5 91.8Q67.5 92.1 59.7 92.8Q51.8 93.6 45.2 91.9Q38.5 90.2 31.2 88.8Q24 87.5 21.8 84.5Q19.6 81.6 16.3 78.8Q13 76 16.3 73.2Q19.6 70.4 21.8 67.5Q24 64.5 31.2 63.2Q38.5 61.8 45.2 60.1Q51.8 58.4 59.7 59.2Q67.5 59.9 75.5 60.2Q83.5 60.5 88.2 63Q92.9 65.5 98.6 67.7Q104.2 69.9 103.6 72.9Z" fill="url(#a2)"/><path d="M103 76Q103 76 103.6 79.1Q104.2 82.1 98.6 84.3Q92.9 86.5 88.2 89Q83.5 91.5 75.5 91.8Q67.5 92.1 59.7 92.8Q51.8 93.6 45.2 91.9Q38.5 90.2 31.2 88.8Q24 87.5 21.8 84.5Q19.6 81.6 16.3 78.8Q13 76 16.3 73.2Q19.6 70.4 21.8 67.5Q24 64.5 31.2 63.2Q38.5 61.8 45.2 60.1Q51.8 58.4 59.7 59.2Q67.5 59.9 75.5 60.2Q83.5 60.5 88.2 63Q92.9 65.5 98.6 67.7Q104.2 69.9 103.6 72.9Z" fill="none" stroke="url(#a4)" stroke-width="3" clip-path="url(#a3)"/><g clip-path="url(#a3)" fill="none" stroke="#a8a060" stroke-opacity=".35" stroke-width="1.1"><path d="M60 66Q86 74 106 76"/><path d="M60 66Q79.9 81.7 95.2 87.6"/><path d="M60 66Q64.5 85.8 68 93.7"/><path d="M60 66Q47 84.4 37 91.6"/><path d="M60 66Q35.6 78.1 16.8 82.2"/><path d="M60 66Q35.6 69.9 16.8 69.8"/><path d="M60 66Q47 63.6 37 60.4"/><path d="M60 66Q64.5 62.2 68 58.3"/><path d="M60 66Q79.9 66.3 95.2 64.4"/></g><ellipse cx="60" cy="64" rx="18" ry="8" fill="url(#a5)"/><path d="M57 64C56 58 58 54 62 52L66 54C62 56 61 60 62 64Z" fill="url(#a6)"/><ellipse cx="40" cy="66" rx="12" ry="3" fill="url(#a7)" transform="rotate(-6 40 66)"/></svg>
