<svg xmlns="http://www.w3.org/2000/svg" viewBox="0 0 120 120" width="120" height="120"><defs><radialGradient id="a1" cx="0.50" cy="0.50" r="0.50"><stop offset="0.00" stop-color="#000" stop-opacity="0.55"/><stop offset="0.50" stop-color="#000" stop-opacity="0.28"/><stop offset="1.00" stop-color="#000" stop-opacity="0.00"/></radialGradient><radialGradient id="a2" cx="0.34" cy="0.38" r="0.78"><stop offset="0.00" stop-color="#f8f0a4"/><stop offset="0.40" stop-color="#ddc850"/><stop offset="0.80" stop-color="#a8922a"/><stop offset="1.00" stop-color="#544a12"/></radialGradient><clipPath id="a3"><path d="M60 22C67 22 71 30 71 40C71 50 85 57 89 74C93 92 79 104 60 104C41 104 27 92 31 74C35 57 49 50 49 40C49 30 53 22 60 22Z"/></clipPath><linearGradient id="a4" x1="0.15" y1="0.05" x2="0.85" y2="1.00"><stop offset="0.00" stop-color="#ffe4c6" stop-opacity="0.00"/><stop offset="0.55" stop-color="#ffe4c6" stop-opacity="0.00"/><stop offset="1.00" stop-color="#ffe4c6" stop-opacity="0.32"/></linearGradient><clipPath id="a5"><path d="M60 22C67 22 71 30 71 40C71 50 85 57 89 74C93 92 79 104 60 104C41 104 27 92 31 74C35 57 49 50 49 40C49 30 53 22 60 22Z"/></clipPath><radialGradient id="a6" cx="0.50" cy="0.50" r="0.50"><stop offset="0.00" stop-color="#e0703a" stop-opacity="0.30"/><stop offset="0.55" stop-color="#e0703a" stop-opacity="0.17"/><stop offset="1.00" stop-color="#e0703a" stop-opacity="0.00"/></radialGradient><radialGradient id="a7" cx="0.50" cy="0.50" r="0.50"><stop offset="0.00" stop-color="#fff" stop-opacity="0.45"/><stop offset="0.45" stop-color="#fff" stop-opacity="0.18"/><stop offset="1.00" stop-color="#fff" stop-opacity="0.00"/></radialGradient><radialGradient id="a8" cx="0.50" cy="0.50" r="0.50"><stop offset="0.00" stop-color="#fff" stop-opacity="0.35"/><stop offset="0.45" stop-color="#fff" stop-opacity="0.14"/><stop offset="1.00" stop-color="#fff" stop-opacity="0.00"/></radialGradient><linearGradient id="a9" x1="0.00" y1="0.00" x2="1.00" y2="0.00"><stop offset="0.00" stop-color="#5f9a3c"/><stop offset="0.45" stop-color="#a4d06a"/><stop offset="1.00" stop-color="#5f9a3c"/></linearGradient><linearGradient id="a10" x1="0.00" y1="0.00" x2="1.00" y2="0.00"><stop offset="0.00" stop-color="#335f24"/><stop offset="0.50" stop-color="#5f9a3c"/><stop offset="1.00" stop-color="#335f24"/></linearGradient></defs><ellipse cx="60" cy="104" rx="30" ry="5" fill="url(#a1)"/><path d="M60 22C67 22 71 30 71 40C71 50 85 57 89 74C93 92 79 104 60 104C41 104 27 92 31 74C35 57 49 50 49 40C49 30 53 22 60 22Z" fill="url(#a2)"/><path d="M60 22C67 22 71 30 71 40C71 50 85 57 89 74C93 92 79 104 60 104C41 104 27 92 31 74C35 57 49 50 49 40C49 30 53 22 60 22Z" fill="none" stroke="url(#a4)" stroke-width="3" clip-path="url(#a3)"/><ellipse cx="78" cy="78" rx="13" ry="17" fill="url(#a6)" clip-path="url(#a5)"/><g clip-path="url(#a5)"><circle cx="45.7" cy="32.3" r="0.5" fill="#7a5a1e" fill-opacity="0.2"/><circle cx="35.9" cy="56.1" r="0.8" fill="#7a5a1e" fill-opacity="0.4"/><circle cx="76.4" cy="41.8" r="0.6" fill="#7a5a1e" fill-opacity="0.3"/><circle cx="42" cy="32.5" r="0.4" fill="#7a5a1e" fill-opacity="0.4"/><circle cx="80.1" cy="88.5" r="0.7" fill="#7a5a1e" fill-opacity="0.2"/><circle cx="50" cy="74.2" r="0.7" fill="#7a5a1e" fill-opacity="0.4"/><circle cx="83" cy="30.9" r="0.6" fill="#7a5a1e" fill-opacity="0.4"/><circle cx="61.3" cy="38.2" r="0.6" fill="#7a5a1e" fill-opacity="0.2"/><circle cx="86.2" cy="93.2" r="0.6" fill="#7a5a1e" fill-opacity="0.3"/><circle cx="84.7" cy="69.8" r="0.7" fill="#7a5a1e" fill-opacity="0.4"/><circle cx="61.5" cy="57.1" r="0.6" fill="#7a5a1e" fill-opacity="0.3"/><circle cx="41.4" cy="48.4" r="0.7" fill="#7a5a1e" fill-opacity="0.2"/><circle cx="34.7" cy="74.1" r="0.5" fill="#7a5a1e" fill-opacity="0.3"/><circle cx="59.3" cy="51.4" r="0.8" fill="#7a5a1e" fill-opacity="0.2"/><circle cx="55.9" cy="40.2" r="0.6" fill="#7a5a1e" fill-opacity="0.3"/><circle cx="52.6" cy="83.8" r="0.5" fill="#7a5a1e" fill-opacity="0.3"/><circle cx="84.5" cy="32.1" r="0.4" fill="#7a5a1e" fill-opacity="0.3"/><circle cx="76.4" cy="73.2" r="0.5" fill="#7a5a1e" fill-opacity="0.3"/><circle cx="42.3" cy="60.7" r="0.4" fill="#7a5a1e" fill-opacity="0.4"/><circle cx="84" cy="100.4" r="0.7" fill="#7a5a1e" fill-opacity="0.4"/><circle cx="33.1" cy="47.1" r="0.8" fill="#7a5a1e" fill-opacity="0.4"/><circle cx="55.8" cy="99.5" r="0.6" fill="#7a5a1e" fill-opacity="0.4"/><circle cx="49" cy="39.3" r="0.5" fill="#7a5a1e" fill-opacity="0.2"/><circle cx="54.1" cy="100.9" r="0.5" fill="#7a5a1e" fill-opacity="0.2"/><circle cx="34.6" cy="37.6" r="0.7" fill="#7a5a1e" fill-opacity="0.3"/><circle cx="48.8" cy="31.8" r="0.8" fill="#7a5a1e" fill-opacity="0.3"/><circle cx="44.1" cy="28.7" r="0.4" fill="#7a5a1e" fill-opacity="0.2"/><circle cx="71.3" cy="36" r="0.4" fill="#7a5a1e" fill-opacity="0.3"/><circle cx="46.4" cy="103.8" r="0.4" fill="#7a5a1e" fill-opacity="0.3"/><circle cx="76.9" cy="56.7" r="0.8" fill="#7a5a1e" fill-opacity="0.3"/><circle cx="46" cy="56.8" r="0.4" fill="#7a5a1e" fill-opacity="0.3"/><circle cx="46.4" cy="95.1" r="0.7" fill="#7a5a1e" fill-opacity="0.3"/><circle cx="33.8" cy="44.4" r="0.5" fill="#7a5a1e" fill-opacity="0.3"/><circle cx="45.4" cy="93.6" r="0.4" fill="#7a5a1e" fill-opacity="0.2"/></g><ellipse cx="46" cy="72" rx="6" ry="10" fill="url(#a7)" transform="rotate(-18 46 72)"/><ellipse cx="55" cy="36" rx="2.4" ry="5" fill="url(#a8)" transform="rotate(-10 55 36)"/><path d="M60 24C60 16 62 10 67 5" fill="none" stroke="#4f3219" stroke-width="2.8" stroke-linecap="round"/><path d="M60 24C60 16 62 10 67 5" fill="none" stroke="#9a7045" stroke-width="0.8" stroke-linecap="round" stroke-opacity="0.7" transform="translate(-.5 -.3)"/><g transform="translate(62 13) rotate(-160)"><path d="M-2 0L0 0" stroke="#6b5a2c" stroke-width="1.2" stroke-linecap="round" fill="none"/><path d="M0 0C6.2 -8.5 19.6 -8.1 28 0Q14 -1.2 0 0Z" fill="url(#a9)"/><path d="M0 0Q14 -1.2 28 0C19.6 7.7 6.2 8.5 0 0Z" fill="url(#a10)"/><path d="M0 0Q14 -1.2 26.9 0" fill="none" stroke="#e2f3bf" stroke-width="0.7" stroke-opacity="0.7" stroke-linecap="round"/><path d="M5 -0.4Q7 -3.2 9.2 -5.1" fill="none" stroke="#e2f3bf" stroke-width="0.4" stroke-opacity="0.5"/><path d="M5 -0.4Q7 2.9 9.2 5.1" fill="none" stroke="#e2f3bf" stroke-width="0.4" stroke-opacity="0.5"/><path d="M10.1 -0.5Q12 -3.7 14.3 -5.8" fill="none" stroke="#e2f3bf" stroke-width="0.4" stroke-opacity="0.5"/><path d="M10.1 -0.5Q12 3.3 14.3 5.8" fill="none" stroke="#e2f3bf" stroke-width="0.4" stroke-opacity="0.5"/><path d="M15.1 -0.6Q17.1 -3.2 19.3 -5" fill="none" stroke="#e2f3bf" stroke-width="0.4" stroke-opacity="0.5"/><path d="M15.1 -0.6Q17.1 2.7 19.3 5" fill="none" stroke="#e2f3bf" stroke-width="0.4" stroke-opacity="0.5"/><path d="M20.2 -0.5Q22.1 -1.8 24.4 -2.7" fill="none" stroke="#e2f3bf" stroke-width="0.4" stroke-opacity="0.5"/><path d="M20.2 -0.5Q22.1 1.4 24.4 2.7" fill="none" stroke="#e2f3bf" stroke-width="0.4" stroke-opacity="0.5"/></g></svg>
