<svg xmlns="http://www.w3.org/2000/svg" viewBox="0 0 120 120" width="120" height="120"><defs><radialGradient id="a1"><stop stop-color="#000" stop-opacity=".55"/><stop offset=".5" stop-color="#000" stop-opacity=".28"/><stop offset="1" stop-color="#000" stop-opacity="0"/></radialGradient><radialGradient id="a2" cx=".34" cy=".28" r=".82"><stop stop-color="#fff09a"/><stop offset=".4" stop-color="#f4c41a"/><stop offset=".8" stop-color="#c08a08"/><stop offset="1" stop-color="#5e4004"/></radialGradient><clipPath id="a3"><path d="M-22-24C-12-30-4-26 0-24C6-28 16-30 24-22C32-12 30 8 24 22C18 34 8 38 0 36C-10 38-20 32-26 20C-32 6-32-14-22-24Z"/></clipPath><linearGradient id="a4" x1=".15" y1=".05" x2=".85" y2="1"><stop stop-color="#fff4c0" stop-opacity="0"/><stop offset=".55" stop-color="#fff4c0" stop-opacity="0"/><stop offset="1" stop-color="#fff4c0" stop-opacity=".35"/></linearGradient><radialGradient id="a5"><stop stop-color="#fff" stop-opacity=".7"/><stop offset=".45" stop-color="#fff" stop-opacity=".28"/><stop offset="1" stop-color="#fff" stop-opacity="0"/></radialGradient><radialGradient id="a6"><stop stop-color="#fff" stop-opacity=".35"/><stop offset=".45" stop-color="#fff" stop-opacity=".14"/><stop offset="1" stop-color="#fff" stop-opacity="0"/></radialGradient><linearGradient id="a7"><stop stop-color="#8ab85a"/><stop offset="1" stop-color="#3e6a24"/></linearGradient><radialGradient id="a8" cx=".34" cy=".28" r=".82"><stop stop-color="#ff9a7a"/><stop offset=".4" stop-color="#e0261a"/><stop offset=".8" stop-color="#96100a"/><stop offset="1" stop-color="#420404"/></radialGradient><linearGradient id="a9" x1=".15" y1=".05" x2=".85" y2="1"><stop stop-color="#ffb0a0" stop-opacity="0"/><stop offset=".55" stop-color="#ffb0a0" stop-opacity="0"/><stop offset="1" stop-color="#ffb0a0" stop-opacity=".35"/></linearGradient></defs><g fill="url(#a1)"><ellipse cx="40" cy="102" rx="28" ry="4.5"/><ellipse cx="82" cy="103" rx="28" ry="4.5"/></g><g transform="translate(82 66) rotate(10) scale(.95)"><path d="M-22-24C-12-30-4-26 0-24C6-28 16-30 24-22C32-12 30 8 24 22C18 34 8 38 0 36C-10 38-20 32-26 20C-32 6-32-14-22-24Z" fill="url(#a2)"/><path d="M-22-24C-12-30-4-26 0-24C6-28 16-30 24-22C32-12 30 8 24 22C18 34 8 38 0 36C-10 38-20 32-26 20C-32 6-32-14-22-24Z" fill="none" stroke="url(#a4)" stroke-width="3" clip-path="url(#a3)"/><g clip-path="url(#a3)" fill="none"><g stroke="#5e4004" stroke-opacity=".3" stroke-width="2.4"><path d="M-6-22C-10-4-10 18-4 36"/><path d="M8-24C12-6 12 16 6 36"/></g></g><ellipse cx="-16" cy="-8" rx="4" ry="12" fill="url(#a5)" transform="rotate(-8 -16 -8)"/><ellipse cx="16" cy="-6" rx="2.4" ry="8" fill="url(#a6)" transform="rotate(6 16 -6)"/><path d="M-8-25C-4-30 4-30 8-25C4-22-4-22-8-25Z" fill="#3e6a24"/><path d="M-1-27C-2-34 0-40 6-44L9-41C4-38 3-33 3-27Z" fill="url(#a7)"/></g><g transform="translate(40 64) rotate(-8)"><path d="M-22-24C-12-30-4-26 0-24C6-28 16-30 24-22C32-12 30 8 24 22C18 34 8 38 0 36C-10 38-20 32-26 20C-32 6-32-14-22-24Z" fill="url(#a8)"/><path d="M-22-24C-12-30-4-26 0-24C6-28 16-30 24-22C32-12 30 8 24 22C18 34 8 38 0 36C-10 38-20 32-26 20C-32 6-32-14-22-24Z" fill="none" stroke="url(#a9)" stroke-width="3" clip-path="url(#a3)"/><g clip-path="url(#a3)" fill="none"><g stroke="#420404" stroke-opacity=".3" stroke-width="2.4"><path d="M-6-22C-10-4-10 18-4 36"/><path d="M8-24C12-6 12 16 6 36"/></g></g><ellipse cx="-16" cy="-8" rx="4" ry="12" fill="url(#a5)" transform="rotate(-8 -16 -8)"/><ellipse cx="16" cy="-6" rx="2.4" ry="8" fill="url(#a6)" transform="rotate(6 16 -6)"/><path d="M-8-25C-4-30 4-30 8-25C4-22-4-22-8-25Z" fill="#3e6a24"/><path d="M-1-27C-2-34 0-40 6-44L9-41C4-38 3-33 3-27Z" fill="url(#a7)"/></g></svg>
