<svg xmlns="http://www.w3.org/2000/svg" viewBox="0 0 120 120" width="120" height="120"><defs><radialGradient id="a1" cx="0.50" cy="0.50" r="0.50"><stop offset="0.00" stop-color="#000" stop-opacity="0.55"/><stop offset="0.50" stop-color="#000" stop-opacity="0.28"/><stop offset="1.00" stop-color="#000" stop-opacity="0.00"/></radialGradient><linearGradient id="a2" x1="0.00" y1="0.00" x2="1.00" y2="0.00"><stop offset="0.00" stop-color="#44803a"/><stop offset="0.45" stop-color="#86b85a"/><stop offset="1.00" stop-color="#44803a"/></linearGradient><linearGradient id="a3" x1="0.00" y1="0.00" x2="1.00" y2="0.00"><stop offset="0.00" stop-color="#22481c"/><stop offset="0.50" stop-color="#44803a"/><stop offset="1.00" stop-color="#22481c"/></linearGradient><radialGradient id="a4" cx="0.34" cy="0.34" r="0.82"><stop offset="0.00" stop-color="#fff4b0"/><stop offset="0.40" stop-color="#eccc42"/><stop offset="0.80" stop-color="#b88c1a"/><stop offset="1.00" stop-color="#5a420c"/></radialGradient><clipPath id="a5"><path d="M56 30C62 28 68 31 70 36C73 42 80 44 86 50C95 58 97 70 94 80C92 88 96 94 88 99C80 104 66 104 58 103C48 104 36 102 30 96C22 88 24 80 23 72C22 62 26 54 34 48C40 44 44 42 46 37C48 32 51 30 56 30Z"/></clipPath><linearGradient id="a6" x1="0.15" y1="0.05" x2="0.85" y2="1.00"><stop offset="0.00" stop-color="#ffe4c6" stop-opacity="0.00"/><stop offset="0.55" stop-color="#ffe4c6" stop-opacity="0.00"/><stop offset="1.00" stop-color="#ffe4c6" stop-opacity="0.32"/></linearGradient><clipPath id="a7"><path d="M56 30C62 28 68 31 70 36C73 42 80 44 86 50C95 58 97 70 94 80C92 88 96 94 88 99C80 104 66 104 58 103C48 104 36 102 30 96C22 88 24 80 23 72C22 62 26 54 34 48C40 44 44 42 46 37C48 32 51 30 56 30Z"/></clipPath><radialGradient id="a8" cx="0.50" cy="0.50" r="0.50"><stop offset="0.00" stop-color="#b8c050" stop-opacity="0.45"/><stop offset="0.55" stop-color="#b8c050" stop-opacity="0.25"/><stop offset="1.00" stop-color="#b8c050" stop-opacity="0.00"/></radialGradient><radialGradient id="a9" cx="0.50" cy="0.50" r="0.50"><stop offset="0.00" stop-color="#d8962a" stop-opacity="0.35"/><stop offset="0.55" stop-color="#d8962a" stop-opacity="0.19"/><stop offset="1.00" stop-color="#d8962a" stop-opacity="0.00"/></radialGradient><radialGradient id="a10" cx="0.50" cy="0.50" r="0.50"><stop offset="0.00" stop-color="#f0ecdc" stop-opacity="0.30"/><stop offset="0.55" stop-color="#f0ecdc" stop-opacity="0.17"/><stop offset="1.00" stop-color="#f0ecdc" stop-opacity="0.00"/></radialGradient><radialGradient id="a11" cx="0.45" cy="0.45" r="0.62"><stop offset="0.00" stop-color="#f2eee0" stop-opacity="0.00"/><stop offset="0.72" stop-color="#f2eee0" stop-opacity="0.00"/><stop offset="1.00" stop-color="#f2eee0" stop-opacity="0.40"/></radialGradient><radialGradient id="a12" cx="0.50" cy="0.50" r="0.50"><stop offset="0.00" stop-color="#5e4410" stop-opacity="0.50"/><stop offset="0.55" stop-color="#5e4410" stop-opacity="0.28"/><stop offset="1.00" stop-color="#5e4410" stop-opacity="0.00"/></radialGradient><radialGradient id="a13" cx="0.50" cy="0.50" r="0.50"><stop offset="0.00" stop-color="#fff" stop-opacity="0.30"/><stop offset="0.45" stop-color="#fff" stop-opacity="0.12"/><stop offset="1.00" stop-color="#fff" stop-opacity="0.00"/></radialGradient></defs><ellipse cx="60" cy="103" rx="36" ry="5.5" fill="url(#a1)"/><g transform="translate(58 30) rotate(-42)"><path d="M-3 0L0 0" stroke="#6b5a2c" stroke-width="1.8" stroke-linecap="round" fill="none"/><path d="M0 0C7 -13 22.4 -12.3 32 0Q16 -1.8 0 0Z" fill="url(#a2)"/><path d="M0 0Q16 -1.8 32 0C22.4 11.7 7 13 0 0Z" fill="url(#a3)"/><path d="M0 0Q16 -1.8 30.7 0" fill="none" stroke="#cfe8a8" stroke-width="1" stroke-opacity="0.7" stroke-linecap="round"/><path d="M5.8 -0.5Q8 -4.9 10.6 -7.9" fill="none" stroke="#cfe8a8" stroke-width="0.6" stroke-opacity="0.5"/><path d="M5.8 -0.5Q8 4.5 10.6 7.9" fill="none" stroke="#cfe8a8" stroke-width="0.6" stroke-opacity="0.5"/><path d="M11.5 -0.8Q13.8 -5.7 16.3 -8.9" fill="none" stroke="#cfe8a8" stroke-width="0.6" stroke-opacity="0.5"/><path d="M11.5 -0.8Q13.8 5 16.3 8.9" fill="none" stroke="#cfe8a8" stroke-width="0.6" stroke-opacity="0.5"/><path d="M17.3 -0.9Q19.5 -4.9 22.1 -7.6" fill="none" stroke="#cfe8a8" stroke-width="0.6" stroke-opacity="0.5"/><path d="M17.3 -0.9Q19.5 4.2 22.1 7.6" fill="none" stroke="#cfe8a8" stroke-width="0.6" stroke-opacity="0.5"/><path d="M23 -0.7Q25.3 -2.7 27.8 -4.1" fill="none" stroke="#cfe8a8" stroke-width="0.6" stroke-opacity="0.5"/><path d="M23 -0.7Q25.3 2.1 27.8 4.1" fill="none" stroke="#cfe8a8" stroke-width="0.6" stroke-opacity="0.5"/></g><path d="M56 30C62 28 68 31 70 36C73 42 80 44 86 50C95 58 97 70 94 80C92 88 96 94 88 99C80 104 66 104 58 103C48 104 36 102 30 96C22 88 24 80 23 72C22 62 26 54 34 48C40 44 44 42 46 37C48 32 51 30 56 30Z" fill="url(#a4)"/><path d="M56 30C62 28 68 31 70 36C73 42 80 44 86 50C95 58 97 70 94 80C92 88 96 94 88 99C80 104 66 104 58 103C48 104 36 102 30 96C22 88 24 80 23 72C22 62 26 54 34 48C40 44 44 42 46 37C48 32 51 30 56 30Z" fill="none" stroke="url(#a6)" stroke-width="3" clip-path="url(#a5)"/><ellipse cx="60" cy="38" rx="12" ry="8" fill="url(#a8)" clip-path="url(#a7)"/><ellipse cx="78" cy="86" rx="16" ry="12" fill="url(#a9)" clip-path="url(#a7)"/><g clip-path="url(#a7)" fill="none" stroke-width="2"><path d="M58 34C50 50 44 72 46 102" stroke="#9a7010" stroke-opacity="0.2"/><path d="M60 34C70 52 76 74 72 102" stroke="#9a7010" stroke-opacity="0.2"/></g><g clip-path="url(#a7)"><circle cx="68.8" cy="84.4" r="0.9" fill="#7a5a16" fill-opacity="0.4"/><circle cx="77.3" cy="96.7" r="0.4" fill="#7a5a16" fill-opacity="0.3"/><circle cx="91.9" cy="78.1" r="0.9" fill="#7a5a16" fill-opacity="0.2"/><circle cx="57.8" cy="50.8" r="0.7" fill="#7a5a16" fill-opacity="0.3"/><circle cx="24.9" cy="48.7" r="0.6" fill="#7a5a16" fill-opacity="0.4"/><circle cx="79.1" cy="44.9" r="0.9" fill="#7a5a16" fill-opacity="0.2"/><circle cx="68.5" cy="42.6" r="0.4" fill="#7a5a16" fill-opacity="0.4"/><circle cx="39.1" cy="48.7" r="1" fill="#7a5a16" fill-opacity="0.4"/><circle cx="44.8" cy="99.4" r="0.7" fill="#7a5a16" fill-opacity="0.4"/><circle cx="38.7" cy="98" r="0.8" fill="#7a5a16" fill-opacity="0.4"/><circle cx="88.3" cy="54.3" r="0.6" fill="#7a5a16" fill-opacity="0.2"/><circle cx="34.5" cy="38.4" r="0.6" fill="#7a5a16" fill-opacity="0.4"/><circle cx="24.2" cy="80.1" r="0.6" fill="#7a5a16" fill-opacity="0.3"/><circle cx="82.9" cy="66.7" r="0.6" fill="#7a5a16" fill-opacity="0.3"/><circle cx="74.7" cy="37.9" r="1" fill="#7a5a16" fill-opacity="0.2"/><circle cx="78" cy="91.5" r="0.4" fill="#7a5a16" fill-opacity="0.4"/><circle cx="50.4" cy="73.3" r="0.4" fill="#7a5a16" fill-opacity="0.2"/><circle cx="37" cy="99" r="0.5" fill="#7a5a16" fill-opacity="0.4"/><circle cx="90.9" cy="98.1" r="0.6" fill="#7a5a16" fill-opacity="0.3"/><circle cx="61.8" cy="86.7" r="0.5" fill="#7a5a16" fill-opacity="0.4"/><circle cx="81.4" cy="92.5" r="0.4" fill="#7a5a16" fill-opacity="0.4"/><circle cx="30.6" cy="57.2" r="0.8" fill="#7a5a16" fill-opacity="0.4"/></g><ellipse cx="40" cy="56" rx="10" ry="6" fill="url(#a10)" clip-path="url(#a7)"/><ellipse cx="72" cy="46" rx="7" ry="5" fill="url(#a10)" clip-path="url(#a7)"/><ellipse cx="32" cy="80" rx="6" ry="9" fill="url(#a10)" clip-path="url(#a7)"/><path d="M56 30C62 28 68 31 70 36C73 42 80 44 86 50C95 58 97 70 94 80C92 88 96 94 88 99C80 104 66 104 58 103C48 104 36 102 30 96C22 88 24 80 23 72C22 62 26 54 34 48C40 44 44 42 46 37C48 32 51 30 56 30Z" fill="url(#a11)"/><ellipse cx="58" cy="32" rx="7" ry="3" fill="url(#a12)" clip-path="url(#a7)"/><ellipse cx="40" cy="58" rx="6" ry="4" fill="url(#a13)" transform="rotate(-35 40 58)"/><path d="M58 32L59 26" fill="none" stroke="#4f3219" stroke-width="2.8" stroke-linecap="round"/><path d="M58 32L59 26" fill="none" stroke="#9a7045" stroke-width="0.8" stroke-linecap="round" stroke-opacity="0.7" transform="translate(-.5 -.3)"/></svg>
