<svg xmlns="http://www.w3.org/2000/svg" viewBox="0 0 120 120" width="120" height="120"><defs><radialGradient id="a1"><stop stop-color="#000" stop-opacity=".55"/><stop offset=".5" stop-color="#000" stop-opacity=".28"/><stop offset="1" stop-color="#000" stop-opacity="0"/></radialGradient><linearGradient id="a2" x1="14" y1="66" x2="92" y2="66" gradientUnits="userSpaceOnUse"><stop stop-color="#f0d0a0"/><stop offset=".25" stop-color="#e0506a"/><stop offset="1" stop-color="#a0183a"/></linearGradient><linearGradient id="a3" x1="14" y1="74" x2="92" y2="74" gradientUnits="userSpaceOnUse"><stop stop-color="#f0d0a0"/><stop offset=".25" stop-color="#e0506a"/><stop offset="1" stop-color="#a0183a"/></linearGradient><linearGradient id="a4" x1="14" y1="82" x2="92" y2="82" gradientUnits="userSpaceOnUse"><stop stop-color="#f0d0a0"/><stop offset=".25" stop-color="#e0506a"/><stop offset="1" stop-color="#a0183a"/></linearGradient><linearGradient id="a5" x1="14" y1="90" x2="92" y2="90" gradientUnits="userSpaceOnUse"><stop stop-color="#f0d0a0"/><stop offset=".25" stop-color="#e0506a"/><stop offset="1" stop-color="#a0183a"/></linearGradient><linearGradient id="a6"><stop stop-color="#5f9a3c"/><stop offset=".45" stop-color="#a4d06a"/><stop offset="1" stop-color="#5f9a3c"/></linearGradient><linearGradient id="a7"><stop stop-color="#335f24"/><stop offset=".5" stop-color="#5f9a3c"/><stop offset="1" stop-color="#335f24"/></linearGradient><linearGradient id="a8"><stop stop-color="#44803a"/><stop offset=".45" stop-color="#86b85a"/><stop offset="1" stop-color="#44803a"/></linearGradient><linearGradient id="a9"><stop stop-color="#22481c"/><stop offset=".5" stop-color="#44803a"/><stop offset="1" stop-color="#22481c"/></linearGradient></defs><ellipse cx="60" cy="102" rx="46" ry="4.5" fill="url(#a1)"/><g transform="rotate(-18 60 66)"><path d="M14 66L92 66" stroke="url(#a2)" stroke-width="7.4" stroke-linecap="round"/><path d="M16 64L90 64" stroke="#ffd0d8" stroke-opacity=".5" stroke-width="1.2"/><path d="M16 67.6L90 67.6" stroke="#6a0a20" stroke-opacity=".3" stroke-width=".8"/></g><g transform="rotate(-12 60 74)"><path d="M14 74L92 74" stroke="url(#a3)" stroke-width="7.4" stroke-linecap="round"/><path d="M16 72L90 72" stroke="#ffd0d8" stroke-opacity=".5" stroke-width="1.2"/><path d="M16 75.6L90 75.6" stroke="#6a0a20" stroke-opacity=".3" stroke-width=".8"/></g><g transform="rotate(-6 60 82)"><path d="M14 82L92 82" stroke="url(#a4)" stroke-width="7.4" stroke-linecap="round"/><path d="M16 80L90 80" stroke="#ffd0d8" stroke-opacity=".5" stroke-width="1.2"/><path d="M16 83.6L90 83.6" stroke="#6a0a20" stroke-opacity=".3" stroke-width=".8"/></g><g transform="rotate(-1 60 90)"><path d="M14 90L92 90" stroke="url(#a5)" stroke-width="7.4" stroke-linecap="round"/><path d="M16 88L90 88" stroke="#ffd0d8" stroke-opacity=".5" stroke-width="1.2"/><path d="M16 91.6L90 91.6" stroke="#6a0a20" stroke-opacity=".3" stroke-width=".8"/></g><g transform="translate(88 58) rotate(-40)"><path d="M0 0C7.5-20 23.8-19 34 0Q17-2.8 0 0Z" fill="url(#a6)"/><path d="M0 0Q17-2.8 34 0C23.8 18 7.5 20 0 0Z" fill="url(#a7)"/><path d="M0 0Q17-2.8 32.6 0" fill="none" stroke="#e2f3bf" stroke-width="1.6" stroke-opacity=".7" stroke-linecap="round"/><g fill="none" stroke="#e2f3bf" stroke-width=".9" stroke-opacity=".5"><path d="M4.4-.6Q6.8-6.8 9.5-11"/><path d="M4.4-.6Q6.8 6.3 9.5 11"/><path d="M8.7-1.1Q11.1-8.4 13.8-13.2"/><path d="M8.7-1.1Q11.1 7.5 13.8 13.2"/><path d="M13.1-1.3Q15.5-8.7 18.2-13.7"/><path d="M13.1-1.3Q15.5 7.7 18.2 13.7"/><path d="M17.5-1.4Q19.9-7.9 22.6-12.2"/><path d="M17.5-1.4Q19.9 6.8 22.6 12.2"/><path d="M21.9-1.3Q24.2-5.9 27-9"/><path d="M21.9-1.3Q24.2 4.9 27 9"/><path d="M26.2-1Q28.6-2.9 31.3-4.1"/><path d="M26.2-1Q28.6 2.1 31.3 4.1"/></g></g><g transform="translate(92 66) rotate(10)"><path d="M0 0C5.7-15 18.2-14.2 26 0Q13-2.1 0 0Z" fill="url(#a8)"/><path d="M0 0Q13-2.1 26 0C18.2 13.5 5.7 15 0 0Z" fill="url(#a9)"/><path d="M0 0Q13-2.1 25 0" fill="none" stroke="#cfe8a8" stroke-width="1.2" stroke-opacity=".7" stroke-linecap="round"/><g fill="none" stroke="#cfe8a8" stroke-width=".7" stroke-opacity=".5"><path d="M3.9-.5Q5.7-5.4 7.8-8.6"/><path d="M3.9-.5Q5.7 4.9 7.8 8.6"/><path d="M7.8-.9Q9.6-6.5 11.7-10.2"/><path d="M7.8-.9Q9.6 5.8 11.7 10.2"/><path d="M11.7-1Q13.5-6.3 15.6-9.9"/><path d="M11.7-1Q13.5 5.5 15.6 9.9"/><path d="M15.6-1Q17.4-5 19.5-7.7"/><path d="M15.6-1Q17.4 4.2 19.5 7.7"/><path d="M19.5-.8Q21.3-2.6 23.4-3.8"/><path d="M19.5-.8Q21.3 2 23.4 3.8"/></g></g></svg>
